<?xml version="1.0" encoding="UTF-8"?>
<svg width="28px" height="28px" viewBox="0 0 28 28" version="1.1" xmlns="http://www.w3.org/2000/svg" xmlns:xlink="http://www.w3.org/1999/xlink">
    <!-- Generator: Sketch 49 (51002) - http://www.bohemiancoding.com/sketch -->
    <title>Group</title>
    <desc>Created with Sketch.</desc>
    <defs></defs>
    <g id="Page-1" stroke="none" stroke-width="1" fill="none" fill-rule="evenodd">
        <g id="last-seen-landing-copy-10" transform="translate(-685.000000, -768.000000)">
            <g id="Group-3" transform="translate(685.000000, 768.000000)">
                <g id="Group">
                    <circle id="Oval" fill="#000000" cx="13.6111111" cy="13.6111111" r="13.6111111"></circle>
                    <path d="M15.889442,13.6672171 C15.889442,12.4432574 14.8911769,11.4449923 13.6672171,11.4449923 C12.4432574,11.4449923 11.4449923,12.4432574 11.4449923,13.6672171 C11.4449923,14.8911769 12.4432574,15.889442 13.6672171,15.889442 C14.8911769,15.889442 15.889442,14.8911769 15.889442,13.6672171 Z M17.0873601,13.6672171 C17.0873601,15.5595805 15.5595805,17.0873601 13.6672171,17.0873601 C11.7748538,17.0873601 10.2470742,15.5595805 10.2470742,13.6672171 C10.2470742,11.7748538 11.7748538,10.2470742 13.6672171,10.2470742 C15.5595805,10.2470742 17.0873601,11.7748538 17.0873601,13.6672171 Z M18.0248612,10.1081851 C18.0248612,10.550894 17.668958,10.9067972 17.2262492,10.9067972 C16.7835403,10.9067972 16.4276371,10.550894 16.4276371,10.1081851 C16.4276371,9.66547627 16.7835403,9.30957307 17.2262492,9.30957307 C17.668958,9.30957307 18.0248612,9.66547627 18.0248612,10.1081851 Z M13.6672171,8.19846063 C12.6949938,8.19846063 10.611658,8.12033554 9.73492079,8.46755817 C9.43110099,8.5890861 9.20540627,8.73665572 8.971031,8.971031 C8.73665572,9.20540627 8.5890861,9.43110099 8.46755817,9.73492079 C8.12033554,10.611658 8.19846063,12.6949938 8.19846063,13.6672171 C8.19846063,14.6394405 8.12033554,16.7227763 8.46755817,17.5995135 C8.5890861,17.9033333 8.73665572,18.129028 8.971031,18.3634033 C9.20540627,18.5977786 9.43110099,18.7453482 9.73492079,18.8668761 C10.611658,19.2140988 12.6949938,19.1359737 13.6672171,19.1359737 C14.6394405,19.1359737 16.7227763,19.2140988 17.5995135,18.8668761 C17.9033333,18.7453482 18.129028,18.5977786 18.3634033,18.3634033 C18.5977786,18.129028 18.7453482,17.9033333 18.8668761,17.5995135 C19.2140988,16.7227763 19.1359737,14.6394405 19.1359737,13.6672171 C19.1359737,12.6949938 19.2140988,10.611658 18.8668761,9.73492079 C18.7453482,9.43110099 18.5977786,9.20540627 18.3634033,8.971031 C18.129028,8.73665572 17.9033333,8.5890861 17.5995135,8.46755817 C16.7227763,8.12033554 14.6394405,8.19846063 13.6672171,8.19846063 Z M20.3338918,13.6672171 C20.3338918,14.5873571 20.3425723,15.4988166 20.2904889,16.4189565 C20.2384055,17.4866661 19.9953497,18.4328478 19.2140988,19.2140988 C18.4328478,19.9953497 17.4866661,20.2384055 16.4189565,20.2904889 C15.4988166,20.3425723 14.5873571,20.3338918 13.6672171,20.3338918 C12.7470772,20.3338918 11.8356177,20.3425723 10.9154778,20.2904889 C9.84776815,20.2384055 8.90158647,19.9953497 8.12033554,19.2140988 C7.33908461,18.4328478 7.09602876,17.4866661 7.04394536,16.4189565 C6.99186197,15.4988166 7.00054254,14.5873571 7.00054254,13.6672171 C7.00054254,12.7470772 6.99186197,11.8356177 7.04394536,10.9154778 C7.09602876,9.84776815 7.33908461,8.90158647 8.12033554,8.12033554 C8.90158647,7.33908461 9.84776815,7.09602876 10.9154778,7.04394536 C11.8356177,6.99186197 12.7470772,7.00054254 13.6672171,7.00054254 C14.5873571,7.00054254 15.4988166,6.99186197 16.4189565,7.04394536 C17.4866661,7.09602876 18.4328478,7.33908461 19.2140988,8.12033554 C19.9953497,8.90158647 20.2384055,9.84776815 20.2904889,10.9154778 C20.3425723,11.8356177 20.3338918,12.7470772 20.3338918,13.6672171 Z" id="" fill="#FFFFFF"></path>
                </g>
            </g>
        </g>
    </g>
</svg>