<?xml version="1.0" encoding="UTF-8"?>
<svg width="89px" height="16px" viewBox="0 0 89 16" version="1.1" xmlns="http://www.w3.org/2000/svg" xmlns:xlink="http://www.w3.org/1999/xlink">
    <!-- Generator: Sketch 49 (51002) - http://www.bohemiancoding.com/sketch -->
    <title>Page 1</title>
    <desc>Created with Sketch.</desc>
    <defs>
        <polygon id="path-1" points="0.0820951327 15.9292035 10.3033341 15.9292035 10.3033341 0.000187402395 0.0820951327 0.000187402395"></polygon>
    </defs>
    <g id="Page-1" stroke="none" stroke-width="1" fill="none" fill-rule="evenodd">
        <g id="last-seen-landing-copy-10" transform="translate(-675.000000, -30.000000)">
            <g id="Page-1" transform="translate(675.000000, 30.000000)">
                <polygon id="Fill-1" fill="#000000" points="0 15.6691827 1.19820796 15.6691827 1.19820796 1.88292556 0 1.88292556"></polygon>
                <g id="Group-19" transform="translate(2.787611, 0.000000)">
                    <path d="M6.87136726,11.9624571 L6.87136726,10.8722436 L4.01127876,11.0737012 C2.3689115,11.1838001 1.49731858,11.8242478 1.49731858,12.9313274 C1.49731858,13.9934305 2.42187611,14.7172723 3.7850177,14.7172723 C5.53610177,14.7172723 6.87136726,13.5174284 6.87136726,11.9624571 M0.270769912,12.9228943 C0.270769912,11.2386153 1.52380088,10.2585008 3.86585841,10.0949922 L6.87136726,9.8921291 L6.87136726,9.05022384 C6.87136726,7.61331598 5.97189823,6.77984383 4.39225221,6.77984383 C3.03050442,6.77984383 2.0780708,7.48541385 1.86017257,8.65714732 L0.706566372,8.65714732 C0.807384956,6.9260177 2.34893363,5.70087454 4.40200885,5.70087454 C6.64371239,5.70087454 8.06957522,6.96302967 8.06957522,8.94996356 L8.06957522,15.6692764 L6.92433186,15.6692764 L6.92433186,13.7835398 L6.89784956,13.7835398 C6.37145575,14.9819781 5.0459469,15.7789068 3.54760619,15.7789068 C1.59627876,15.7789068 0.270769912,14.6254451 0.270769912,12.9228943" id="Fill-2" fill="#000000"></path>
                    <path d="M13.4885509,5.7009214 C15.4677544,5.7009214 16.9019801,6.88952108 17.0023341,8.58363873 L15.8487279,8.58363873 C15.7316482,7.46718896 14.8321792,6.72601249 13.4523119,6.72601249 C12.1449226,6.72601249 11.1646128,7.40206663 11.1646128,8.4009214 C11.1646128,9.20628319 11.745365,9.67244664 12.9886394,9.98494014 L14.4869801,10.3513118 C16.4480642,10.8441801 17.1923562,11.5595888 17.1923562,12.9594846 C17.1923562,14.6254919 15.6224668,15.7789537 13.4244358,15.7789537 C11.3281527,15.7789537 9.82098451,14.5706767 9.68439159,12.8948308 L10.9021128,12.8948308 C11.0470686,14.0215877 12.0180863,14.7622957 13.4969137,14.7622957 C14.9590155,14.7622957 15.9760288,14.0862415 15.9760288,13.0414732 C15.9760288,12.2089381 15.4775111,11.7512077 14.1506084,11.421848 L12.4998783,11.0006611 C10.8096571,10.5710411 9.9747677,9.76521083 9.9747677,8.4641697 C9.9747677,6.8361114 11.4731084,5.7009214 13.4885509,5.7009214" id="Fill-4" fill="#000000"></path>
                    <path d="M20.5972832,3.44754815 L20.5972832,5.81069235 L22.5579027,5.81069235 L22.5579027,6.82641333 L20.5972832,6.82641333 L20.5972832,13.1976262 C20.5972832,14.2227173 20.9968407,14.662176 21.9046726,14.662176 C22.030115,14.662176 22.5300265,14.6354711 22.602969,14.6256325 L22.602969,15.6605622 C22.4756681,15.6975742 21.9213982,15.724279 21.6672611,15.724279 C20.0527699,15.724279 19.3990752,15.018709 19.3990752,13.2440083 L19.3990752,6.82641333 L17.9996947,6.82641333 L17.9996947,5.81069235 L19.3990752,5.81069235 L19.3990752,3.44754815 L20.5972832,3.44754815 Z" id="Fill-6" fill="#000000"></path>
                    <path d="M31.7353208,5.7009214 C33.7145243,5.7009214 35.14875,6.88952108 35.2477102,8.58363873 L34.0954978,8.58363873 C33.9770243,7.46718896 33.0789491,6.72601249 31.6990819,6.72601249 C30.3916925,6.72601249 29.4113827,7.40206663 29.4113827,8.4009214 C29.4113827,9.20628319 29.992135,9.67244664 31.2368031,9.98494014 L32.73375,10.3513118 C34.6948341,10.8441801 35.4391261,11.5595888 35.4391261,12.9594846 C35.4391261,14.6254919 33.8678429,15.7789537 31.6725996,15.7789537 C29.5749226,15.7789537 28.0677544,14.5706767 27.9325553,12.8948308 L29.1474889,12.8948308 C29.2924447,14.0215877 30.2648562,14.7622957 31.7450774,14.7622957 C33.2057854,14.7622957 34.2227987,14.0862415 34.2227987,13.0414732 C34.2227987,12.2089381 33.7228872,11.7512077 32.3987721,11.421848 L30.7452544,11.0006611 C29.0578208,10.5710411 28.2229314,9.76521083 28.2229314,8.4641697 C28.2229314,6.8361114 29.7198783,5.7009214 31.7353208,5.7009214" id="Fill-8" fill="#000000"></path>
                    <path d="M37.8720133,10.0485164 L43.954115,10.0485164 C43.9359956,8.08969287 42.7377876,6.77131702 40.9681195,6.77131702 C39.2156416,6.77131702 37.9807301,8.08969287 37.8720133,10.0485164 Z M45.0798451,12.877824 C44.789469,14.5621031 43.1833407,15.7792816 41.0577876,15.7792816 C38.3538053,15.7792816 36.6278097,13.8663717 36.6278097,10.7625195 C36.6278097,7.70504945 38.3538053,5.70078084 40.9848451,5.70078084 C43.5550221,5.70078084 45.207146,7.57667881 45.207146,10.5062467 L45.207146,11.037064 L37.8720133,11.037064 L37.8720133,11.1007808 C37.8720133,13.3341489 39.1426991,14.7087454 41.0856637,14.7087454 C42.5561283,14.7087454 43.5996239,13.9567933 43.89,12.877824 L45.0798451,12.877824 Z" id="Fill-10" fill="#000000"></path>
                    <path d="M47.6315774,10.0485164 L53.7136792,10.0485164 C53.6955597,8.08969287 52.4973518,6.77131702 50.7276836,6.77131702 C48.9752058,6.77131702 47.7402942,8.08969287 47.6315774,10.0485164 Z M54.8394093,12.877824 C54.5490332,14.5621031 52.9429049,15.7792816 50.8173518,15.7792816 C48.1133695,15.7792816 46.3873739,13.8663717 46.3873739,10.7625195 C46.3873739,7.70504945 48.1133695,5.70078084 50.7444093,5.70078084 C53.3145863,5.70078084 54.9667102,7.57667881 54.9667102,10.5062467 L54.9667102,11.037064 L47.6315774,11.037064 L47.6315774,11.1007808 C47.6315774,13.3341489 48.9027279,14.7087454 50.8452279,14.7087454 C52.3156925,14.7087454 53.3591881,13.9567933 53.6495642,12.877824 L54.8394093,12.877824 Z" id="Fill-12" fill="#000000"></path>
                    <path d="M56.6355133,5.81078605 L57.7612434,5.81078605 L57.7612434,7.65014055 L57.7974823,7.65014055 C58.3419956,6.42359188 59.5039646,5.70115565 61.0850044,5.70115565 C63.2361106,5.70115565 64.6159779,7.09261843 64.6159779,9.32598647 L64.6159779,15.669089 L63.4173053,15.669089 L63.4173053,9.51760541 C63.4173053,7.77804269 62.4091195,6.77965643 60.7486327,6.77965643 C59.0054469,6.77965643 57.8337212,8.03478397 57.8337212,9.87507548 L57.8337212,15.669089 L56.6355133,15.669089 L56.6355133,5.81078605 Z" id="Fill-14" fill="#000000"></path>
                    <g id="Group-18" transform="translate(75.730088, 0.000000)">
                        <mask id="mask-2" fill="white">
                            <use xlink:href="#path-1"></use>
                        </mask>
                        <g id="Clip-17"></g>
                        <path d="M8.90952876,8.80388339 C8.90952876,9.634076 8.24189602,10.3073191 7.41815708,10.3073191 L2.96727212,10.3073191 C2.14353319,10.3073191 1.47590044,9.634076 1.47590044,8.80388339 L1.47590044,2.90867257 C1.47590044,2.07847996 2.14353319,1.40570536 2.96727212,1.40570536 L7.41815708,1.40570536 C8.24189602,1.40570536 8.90952876,2.07847996 8.90952876,2.90867257 L8.90952876,8.80388339 Z M4.96598894,14.1626549 C4.44702876,14.1626549 4.02563496,13.7391255 4.02563496,13.2148673 C4.02563496,12.6906091 4.44702876,12.2656741 4.96598894,12.2656741 C5.48587832,12.2656741 5.90680752,12.6906091 5.90680752,13.2148673 C5.90680752,13.7391255 5.48587832,14.1626549 4.96598894,14.1626549 Z M10.3033341,1.75474232 C10.3033341,0.785403436 9.5241969,0.000187402395 8.56340044,0.000187402395 L1.82202876,0.000187402395 C0.861232301,0.000187402395 0.0820951327,0.785403436 0.0820951327,1.75474232 L0.0820951327,14.1743675 C0.0820951327,15.1437064 0.861232301,15.9293909 1.82202876,15.9293909 L8.56340044,15.9293909 C9.5241969,15.9293909 10.3033341,15.1437064 10.3033341,14.1743675 L10.3033341,1.75474232 Z" id="Fill-16" fill="#000000" mask="url(#mask-2)"></path>
                    </g>
                </g>
            </g>
        </g>
    </g>
</svg>