<?xml version="1.0" encoding="UTF-8"?>
<svg width="28px" height="28px" viewBox="0 0 28 28" version="1.1" xmlns="http://www.w3.org/2000/svg" xmlns:xlink="http://www.w3.org/1999/xlink">
    <!-- Generator: Sketch 49 (51002) - http://www.bohemiancoding.com/sketch -->
    <title>Group 2</title>
    <desc>Created with Sketch.</desc>
    <defs></defs>
    <g id="Page-1" stroke="none" stroke-width="1" fill="none" fill-rule="evenodd">
        <g id="last-seen-landing-copy-10" transform="translate(-727.000000, -768.000000)">
            <g id="Group-3" transform="translate(685.000000, 768.000000)">
                <g id="Group-2" transform="translate(42.777778, 0.000000)">
                    <circle id="Oval-Copy" fill="#000000" cx="13.6111111" cy="13.6111111" r="13.6111111"></circle>
                    <path d="M21.4583496,9.87500157 C21.0764047,10.4305578 20.5989736,10.92535 20.052098,11.3246561 C20.0607785,11.446184 20.0607785,11.5677119 20.0607785,11.6892398 C20.0607785,15.3958415 17.2395946,19.6666799 12.0833385,19.6666799 C10.4947949,19.6666799 9.0190987,19.2066099 7.77777778,18.4079979 C8.00347249,18.4340396 8.22048664,18.4427201 8.45486192,18.4427201 C9.76562737,18.4427201 10.972226,18.0000113 11.9357688,17.244802 C10.7031285,17.2187603 9.67014114,16.4114677 9.31423794,15.3003553 C9.48784926,15.326397 9.66146058,15.3437581 9.84375246,15.3437581 C10.0954889,15.3437581 10.3472253,15.3090358 10.5816006,15.2482719 C9.29687681,14.9878549 8.333334,13.8593813 8.333334,12.4965325 L8.333334,12.4618102 C8.70659833,12.6701438 9.14062662,12.8003523 9.60069662,12.8177134 C8.84548738,12.3142406 8.35069513,11.4548646 8.35069513,10.4826412 C8.35069513,9.96180723 8.48958418,9.48437611 8.73264003,9.06770894 C10.11285,10.7690999 12.1875053,11.8802123 14.5138969,12.0017402 C14.4704941,11.7934066 14.4444524,11.5763925 14.4444524,11.3593783 C14.4444524,9.81423761 15.6944539,8.55555556 17.2482752,8.55555556 C18.0555678,8.55555556 18.7847353,8.89409763 19.2968887,9.44097328 C19.93057,9.31944536 20.5382097,9.08507008 21.0764047,8.76388914 C20.8680712,9.41493158 20.4253623,9.96180723 19.8437644,10.3090299 C20.4080012,10.2482659 20.9548768,10.0920157 21.4583496,9.87500157 Z" id="" fill="#FFFFFF"></path>
                </g>
            </g>
        </g>
    </g>
</svg>