<?xml version="1.0" encoding="UTF-8"?>
<svg width="166px" height="150px" viewBox="0 0 166 150" version="1.1" xmlns="http://www.w3.org/2000/svg" xmlns:xlink="http://www.w3.org/1999/xlink">
    <!-- Generator: Sketch 49 (51002) - http://www.bohemiancoding.com/sketch -->
    <title>Group 12</title>
    <desc>Created with Sketch.</desc>
    <defs>
        <filter x="-0.4%" y="-0.7%" width="100.8%" height="101.5%" filterUnits="objectBoundingBox" id="filter-1">
            <feOffset dx="0" dy="0" in="SourceAlpha" result="shadowOffsetOuter1"></feOffset>
            <feGaussianBlur stdDeviation="2" in="shadowOffsetOuter1" result="shadowBlurOuter1"></feGaussianBlur>
            <feColorMatrix values="0 0 0 0 0   0 0 0 0 0   0 0 0 0 0  0 0 0 0.3 0" type="matrix" in="shadowBlurOuter1" result="shadowMatrixOuter1"></feColorMatrix>
            <feMerge>
                <feMergeNode in="shadowMatrixOuter1"></feMergeNode>
                <feMergeNode in="SourceGraphic"></feMergeNode>
            </feMerge>
        </filter>
    </defs>
    <g id="Page-1" stroke="none" stroke-width="1" fill="none" fill-rule="evenodd">
        <g id="Calc-Presets-Copy" transform="translate(-467.000000, -268.000000)">
            <g id="Group-Copy-2" filter="url(#filter-1)" transform="translate(0.000000, 50.000000)">
                <g id="Group-9" transform="translate(40.000000, 175.000000)">
                    <g id="Group-11">
                        <g id="Group-5">
                            <g id="Group-3" transform="translate(413.000000, 0.000000)">
                                <g id="Group-12" transform="translate(1.000000, 0.000000)">
                                    <rect id="Rectangle-3-Copy" x="0" y="0" width="256" height="220"></rect>
                                    <g id="Page-1" transform="translate(19.000000, 49.000000)">
                                        <path d="M10.5222432,44.7104247 C12.4057463,43.7469737 15.4097191,44.2702047 17.5739949,44.2702047 C20.807959,44.2702047 25.0854014,45.0944325 27.8741262,43.3028319 C30.2126973,41.8004628 32.9722636,41.672678 35.6250249,41.1340867 C37.3171963,40.790604 38.8354001,40.3713002 40.5586956,40.3258729 C43.3808379,40.251359 46.1859438,39.1941121 48.9962916,38.9666487 C50.8480153,38.8169674 54.1088444,38.1077786 55.973673,38.1077786 C56.1686085,37.4195059 55.2250551,35.831838 54.9826142,35.1242832 C54.6992206,34.2967873 54.5478589,33.3094788 54.3067285,32.3852456 C54.0246454,31.3044679 54.2018893,29.9955733 54.2084417,28.8739438 C54.2153218,27.6866244 53.9011316,26.8467095 53.7569776,25.7927307 C53.6786758,25.2204774 53.808742,24.598875 53.7772902,24.0217195 C53.7478041,23.4752846 53.5482819,23.1873604 53.4241129,22.7010595 C53.2799589,22.1376302 53.3386034,21.5967512 53.2275392,21.0382241 C53.013274,20.9339701 52.8907431,20.762719 52.8602742,20.5244707 C52.8763277,20.21465 52.8927088,19.9051561 52.9090899,19.5953353 C52.8111307,19.1799533 52.5247885,18.9864787 52.4268293,18.5514878 C52.2800543,17.8994916 52.5398591,17.1233056 52.4763003,16.4592173 C52.3459065,15.0934568 51.5773035,13.9394726 51.5278325,12.5452793 C51.4970359,11.6818337 51.5596119,10.8017205 51.5609224,9.93566041 C50.1567313,9.9333727 48.9428891,10.3065956 47.5789956,10.3860117 C47.0017244,10.4196736 46.4120035,10.3320872 45.8344046,10.3657491 C45.0458166,10.4115032 44.3912264,10.7464888 43.6163986,10.8402847 C42.6823462,10.9533627 41.9376597,10.885712 40.9931234,11.1353988 C39.9257285,11.417767 38.9520337,11.6710488 37.8499109,11.7066716 C36.6858673,11.7442554 35.5064254,11.7017694 34.341399,11.6919649 C31.2093256,11.6658197 28.2092842,12.6318853 25.0739346,12.5766535 C23.4482706,12.5482206 21.9828141,12.9776557 20.3866361,13.0413846 C19.5577506,13.0740661 19.2609244,13.0426919 18.4982187,13.3364987 C14.9942935,14.686572 11.1352253,14.3375334 7.43341601,14.3375334 C7.43341601,16.2082233 6.77686004,18.1772844 7.07991107,20.0175805 C7.28533053,21.2650338 7.92124626,22.3876438 8.21610672,23.5814995 C8.7691339,25.8208368 8.92409946,28.2203135 9.19831969,30.6472427 C9.33559361,31.8600537 9.64847333,32.9048816 9.63962751,34.1356674 C9.63110932,35.3053388 9.64454185,36.4750102 9.63962751,37.6446815 C9.63012645,39.9611472 10.4799798,42.4361182 10.5222432,44.7104247" id="Fill-1" fill="#FFFFFF"></path>
                                        <path d="M10.5222432,44.7104247 C12.4057463,43.7469737 15.4097191,44.2702047 17.5739949,44.2702047 C20.807959,44.2702047 25.0854014,45.0944325 27.8741262,43.3028319 C30.2126973,41.8004628 32.9722636,41.672678 35.6250249,41.1340867 C37.3171963,40.790604 38.8354001,40.3713002 40.5586956,40.3258729 C43.3808379,40.251359 46.1859438,39.1941121 48.9962916,38.9666487 C50.8480153,38.8169674 54.1088444,38.1077786 55.973673,38.1077786 C56.1686085,37.4195059 55.2250551,35.831838 54.9826142,35.1242832 C54.6992206,34.2967873 54.5478589,33.3094788 54.3067285,32.3852456 C54.0246454,31.3044679 54.2018893,29.9955733 54.2084417,28.8739438 C54.2153218,27.6866244 53.9011316,26.8467095 53.7569776,25.7927307 C53.6786758,25.2204774 53.808742,24.598875 53.7772902,24.0217195 C53.7478041,23.4752846 53.5482819,23.1873604 53.4241129,22.7010595 C53.2799589,22.1376302 53.3386034,21.5967512 53.2275392,21.0382241 C53.013274,20.9339701 52.8907431,20.762719 52.8602742,20.5244707 C52.8763277,20.21465 52.8927088,19.9051561 52.9090899,19.5953353 C52.8111307,19.1799533 52.5247885,18.9864787 52.4268293,18.5514878 C52.2800543,17.8994916 52.5398591,17.1233056 52.4763003,16.4592173 C52.3459065,15.0934568 51.5773035,13.9394726 51.5278325,12.5452793 C51.4970359,11.6818337 51.5596119,10.8017205 51.5609224,9.93566041 C50.1567313,9.9333727 48.9428891,10.3065956 47.5789956,10.3860117 C47.0017244,10.4196736 46.4120035,10.3320872 45.8344046,10.3657491 C45.0458166,10.4115032 44.3912264,10.7464888 43.6163986,10.8402847 C42.6823462,10.9533627 41.9376597,10.885712 40.9931234,11.1353988 C39.9257285,11.417767 38.9520337,11.6710488 37.8499109,11.7066716 C36.6858673,11.7442554 35.5064254,11.7017694 34.341399,11.6919649 C31.2093256,11.6658197 28.2092842,12.6318853 25.0739346,12.5766535 C23.4482706,12.5482206 21.9828141,12.9776557 20.3866361,13.0413846 C19.5577506,13.0740661 19.2609244,13.0426919 18.4982187,13.3364987 C14.9942935,14.686572 11.1352253,14.3375334 7.43341601,14.3375334 C7.43341601,16.2082233 6.77686004,18.1772844 7.07991107,20.0175805 C7.28533053,21.2650338 7.92124626,22.3876438 8.21610672,23.5814995 C8.7691339,25.8208368 8.92409946,28.2203135 9.19831969,30.6472427 C9.33559361,31.8600537 9.64847333,32.9048816 9.63962751,34.1356674 C9.63110932,35.3053388 9.64454185,36.4750102 9.63962751,37.6446815 C9.63012645,39.9611472 10.4799798,42.4361182 10.5222432,44.7104247 Z" id="Stroke-3" stroke="#231F20" stroke-width="4"></path>
                                        <path d="M108.103092,0.00140696377 C106.705711,0.819805325 105.307336,1.63689738 103.910618,2.45627547 C103.250044,2.84392067 102.462194,3.17245568 101.855977,3.63292723 C101.295169,4.05910834 100.936874,4.64988353 100.36778,5.06887998 C97.7158715,7.02114869 94.5459114,8.2131495 91.9248278,10.2421635 C89.8287564,11.8649174 87.4605668,13.1287649 85.1580038,14.4602134 C84.7446893,14.6995933 83.991973,14.9912253 83.6678177,15.3063707 C83.3439939,15.6218427 83.4162493,15.9275175 83.1096608,16.1995549 C82.7967747,16.4774707 82.3771627,16.6139793 82.0596364,16.9003861 C81.6957075,17.2282679 81.5780437,17.5953389 81,17.9183221 C86.075118,26.3325415 91.2649166,34.6915696 96.2316514,43.1681649 C96.7463887,44.0469797 97.4888302,44.4800189 98.0420154,45.2918858 C98.326397,45.7095759 98.5090244,46.2082568 98.8083211,46.6148434 C99.2305847,47.1879835 99.8281839,47.5517887 100.272986,48.1053343 C101.512929,49.6480772 102.41314,51.6983186 103.434328,53.3912863 C104.726641,55.5339486 106.019284,57.6766109 107.311596,59.8195997 C107.7269,60.5083476 108.473319,61.3326243 108.711629,62.096158 C108.827304,62.4664947 108.606892,62.6990165 108.720909,63.0611888 C108.87901,63.5644417 109.393747,64.1199467 109.664539,64.5817246 C110.815655,63.9079992 111.966439,63.2339472 113.117224,62.5598953 C113.616715,62.2676101 114.20669,62.0089623 114.667733,61.6640985 C115.0426,61.3835701 115.089334,61.1001025 115.328639,60.8656212 C116.177143,60.0331801 116.948421,59.2856487 118.00872,58.6742992 C119.354395,57.8986823 121.338438,57.1524571 122.469004,56.0799829 C123.655584,54.954277 124.950548,54.0924441 126.466919,53.2080774 C127.518269,52.5950951 128.499021,52.0529797 129.398237,51.2358876 C131.270581,49.5341024 133.808472,48.3972928 136,47.1141774 C134.251948,44.2161459 132.463128,41.3380354 130.753192,38.4181233 C129.83177,36.8443557 128.168237,35.9008789 127.25046,34.3271113 C126.759918,33.485526 126.207064,32.6765984 125.724809,31.8310942 C124.712901,30.0574623 124.408301,28.0153853 123.431857,26.2459989 C122.186279,23.9887087 120.751776,21.7921614 119.403118,19.5939813 C118.588752,18.2671048 118.209577,16.8579312 117.473764,15.5176651 C116.724363,14.1529058 115.845033,12.8371329 115.04028,11.5030717 C114.100296,9.94432656 113.160312,8.38590797 112.219997,6.82716281 C111.341662,5.37096237 110.468299,3.14208415 109.216754,1.99515078 C109.097765,2.03564615 108.211475,-0.0619486955 108.103092,0.00140696377" id="Fill-5" fill="#FFFFFF"></path>
                                        <path d="M108.103092,0.00140696377 C106.705711,0.819805325 105.307336,1.63689738 103.910618,2.45627547 C103.250044,2.84392067 102.462194,3.17245568 101.855977,3.63292723 C101.295169,4.05910834 100.936874,4.64988353 100.36778,5.06887998 C97.7158715,7.02114869 94.5459114,8.2131495 91.9248278,10.2421635 C89.8287564,11.8649174 87.4605668,13.1287649 85.1580038,14.4602134 C84.7446893,14.6995933 83.991973,14.9912253 83.6678177,15.3063707 C83.3439939,15.6218427 83.4162493,15.9275175 83.1096608,16.1995549 C82.7967747,16.4774707 82.3771627,16.6139793 82.0596364,16.9003861 C81.6957075,17.2282679 81.5780437,17.5953389 81,17.9183221 C86.075118,26.3325415 91.2649166,34.6915696 96.2316514,43.1681649 C96.7463887,44.0469797 97.4888302,44.4800189 98.0420154,45.2918858 C98.326397,45.7095759 98.5090244,46.2082568 98.8083211,46.6148434 C99.2305847,47.1879835 99.8281839,47.5517887 100.272986,48.1053343 C101.512929,49.6480772 102.41314,51.6983186 103.434328,53.3912863 C104.726641,55.5339486 106.019284,57.6766109 107.311596,59.8195997 C107.7269,60.5083476 108.473319,61.3326243 108.711629,62.096158 C108.827304,62.4664947 108.606892,62.6990165 108.720909,63.0611888 C108.87901,63.5644417 109.393747,64.1199467 109.664539,64.5817246 C110.815655,63.9079992 111.966439,63.2339472 113.117224,62.5598953 C113.616715,62.2676101 114.20669,62.0089623 114.667733,61.6640985 C115.0426,61.3835701 115.089334,61.1001025 115.328639,60.8656212 C116.177143,60.0331801 116.948421,59.2856487 118.00872,58.6742992 C119.354395,57.8986823 121.338438,57.1524571 122.469004,56.0799829 C123.655584,54.954277 124.950548,54.0924441 126.466919,53.2080774 C127.518269,52.5950951 128.499021,52.0529797 129.398237,51.2358876 C131.270581,49.5341024 133.808472,48.3972928 136,47.1141774 C134.251948,44.2161459 132.463128,41.3380354 130.753192,38.4181233 C129.83177,36.8443557 128.168237,35.9008789 127.25046,34.3271113 C126.759918,33.485526 126.207064,32.6765984 125.724809,31.8310942 C124.712901,30.0574623 124.408301,28.0153853 123.431857,26.2459989 C122.186279,23.9887087 120.751776,21.7921614 119.403118,19.5939813 C118.588752,18.2671048 118.209577,16.8579312 117.473764,15.5176651 C116.724363,14.1529058 115.845033,12.8371329 115.04028,11.5030717 C114.100296,9.94432656 113.160312,8.38590797 112.219997,6.82716281 C111.341662,5.37096237 110.468299,3.14208415 109.216754,1.99515078 C109.097765,2.03564615 108.211475,-0.0619486955 108.103092,0.00140696377 Z" id="Stroke-7" stroke="#231F20" stroke-width="4"></path>
                                        <path d="M45.5332678,52.6589447 C45.5332678,53.3837776 45.5221187,54.1095795 45.5316282,54.8340894 C45.5424493,55.6429047 45.3066795,56.0279318 45.1292783,56.7921719 C44.8380912,58.045448 45.331273,59.4505386 45.0538582,60.7076908 C44.8646522,61.5656036 44.6659366,61.9667812 44.6551155,62.8828356 C44.6459339,63.6503057 44.3163808,64.109302 44.1855433,64.8405951 C44.073069,65.4691712 44.300641,66.1626722 44.224893,66.7983545 C44.1317655,67.5793911 43.8209036,68.1695291 43.7664699,68.9780214 C43.7176108,69.7096375 43.466757,69.9131334 43.3021444,70.5707804 C43.1276945,71.2671884 43.3667434,72.1690305 43.3293612,72.8928943 C43.2893558,73.6600415 43.0145643,73.7624354 42.860445,74.3893965 C42.708621,75.0079594 42.8814314,75.9495315 42.8833989,76.5871519 C42.8850385,77.2108829 42.9880033,77.9108441 42.8456889,78.5077653 C42.7007511,79.1143768 42.4328458,79.3159346 42.4430111,80.0691924 C42.4620301,81.4629776 42.5958188,82.7747184 42,83.9834193 C44.2081694,83.9834193 46.4169946,83.9989237 48.624836,83.9834193 C50.5595256,83.9698529 52.0748138,84.7541195 53.9249016,84.8432701 C55.8733635,84.9375888 57.8287116,85.9318115 59.6565013,86.1685773 C61.8056463,86.4473343 64.0052899,85.9027406 66.1249227,86.3762723 C66.7974732,86.5264716 67.4109993,86.4906176 68.0786312,86.5820292 C68.5846017,86.6514762 68.6649405,86.8423747 69.0413852,86.9334634 C70.2802423,87.233539 71.6755141,87.5746369 72.937981,87.8004204 C74.8326651,88.1399032 76.8509726,88.1098633 78.657448,88.5520631 C80.4583488,88.9932938 82.3631982,90.0634237 84.3998688,90.0727909 C85.5092001,90.0776361 86.0453387,90.213946 87.0395724,90.6160926 C87.8265647,90.9345798 89.3307038,91.5473285 90.1416339,91.3793636 C90.1416339,90.2737027 90.004894,89.0595107 90.23968,87.995518 C90.2954253,87.7435707 90.5272601,87.4150703 90.5951382,87.0697733 C90.7974608,86.0396966 90.5941545,85.0257703 90.9037048,83.9608086 C91.1473445,83.1229224 91.206041,82.1093192 91.4539436,81.3295747 C91.5651063,80.9797556 91.8077623,80.8847909 91.9208924,80.5252815 C92.3619361,79.120191 92.2284753,77.6359632 92.5708169,76.173054 C92.9318497,74.6293924 92.8033076,73.0220981 92.7915027,71.4309542 C92.7833049,70.2975145 93.1899176,69.4008406 93.2433675,68.3210205 C93.2722239,67.7425108 93.2207415,67.2363552 93.3315762,66.676257 C93.3961752,66.3493716 93.6296496,66.1329553 93.6749016,65.6326139 C93.8404979,63.7966289 94.7320947,62.2952816 95,60.4899826 C93.9949452,60.5119472 93.6932648,60.2577389 92.8288848,59.7832382 C91.6929926,59.1598302 90.4698753,59.1653213 89.2539721,58.7499314 C88.2941693,58.4217539 87.1586049,58.0328507 86.1679783,57.8571336 C85.4327963,57.7269609 84.6999097,57.973094 83.9581694,57.7828415 C82.1769434,57.3257833 80.3150506,57.7508635 78.5082473,57.4075046 C77.2608645,57.1704158 76.2689262,56.9892076 74.9149714,57.0095572 C73.7390737,57.0273227 72.7527099,56.6190389 71.5915683,56.551853 C70.5645433,56.4927423 69.5355508,56.6894549 68.5327913,56.4775608 C67.8759806,56.3389898 67.43133,56.1458302 66.7332022,56.1222506 C66.1613211,56.103193 65.4936892,56.2831092 64.9349246,56.1619807 C63.9462655,55.9471795 63.3868451,55.6923252 62.3158797,55.7042765 C61.1960551,55.7168739 60.3454476,55.5550462 59.2623493,55.269183 C57.918232,54.9145187 56.3317866,54.8512089 55.1549051,54.5059119 C54.1600156,54.2142345 53.2595652,54.0540219 52.2361472,53.9642253 C51.4737484,53.8973624 51.1396045,53.6147292 50.4017992,53.5191185 C49.557422,53.4092953 46.3861707,52.6589447 45.5332678,52.6589447" id="Fill-9" fill="#FFFFFF"></path>
                                        <path d="M45.5332678,52.6589447 C45.5332678,53.3837776 45.5221187,54.1095795 45.5316282,54.8340894 C45.5424493,55.6429047 45.3066795,56.0279318 45.1292783,56.7921719 C44.8380912,58.045448 45.331273,59.4505386 45.0538582,60.7076908 C44.8646522,61.5656036 44.6659366,61.9667812 44.6551155,62.8828356 C44.6459339,63.6503057 44.3163808,64.109302 44.1855433,64.8405951 C44.073069,65.4691712 44.300641,66.1626722 44.224893,66.7983545 C44.1317655,67.5793911 43.8209036,68.1695291 43.7664699,68.9780214 C43.7176108,69.7096375 43.466757,69.9131334 43.3021444,70.5707804 C43.1276945,71.2671884 43.3667434,72.1690305 43.3293612,72.8928943 C43.2893558,73.6600415 43.0145643,73.7624354 42.860445,74.3893965 C42.708621,75.0079594 42.8814314,75.9495315 42.8833989,76.5871519 C42.8850385,77.2108829 42.9880033,77.9108441 42.8456889,78.5077653 C42.7007511,79.1143768 42.4328458,79.3159346 42.4430111,80.0691924 C42.4620301,81.4629776 42.5958188,82.7747184 42,83.9834193 C44.2081694,83.9834193 46.4169946,83.9989237 48.624836,83.9834193 C50.5595256,83.9698529 52.0748138,84.7541195 53.9249016,84.8432701 C55.8733635,84.9375888 57.8287116,85.9318115 59.6565013,86.1685773 C61.8056463,86.4473343 64.0052899,85.9027406 66.1249227,86.3762723 C66.7974732,86.5264716 67.4109993,86.4906176 68.0786312,86.5820292 C68.5846017,86.6514762 68.6649405,86.8423747 69.0413852,86.9334634 C70.2802423,87.233539 71.6755141,87.5746369 72.937981,87.8004204 C74.8326651,88.1399032 76.8509726,88.1098633 78.657448,88.5520631 C80.4583488,88.9932938 82.3631982,90.0634237 84.3998688,90.0727909 C85.5092001,90.0776361 86.0453387,90.213946 87.0395724,90.6160926 C87.8265647,90.9345798 89.3307038,91.5473285 90.1416339,91.3793636 C90.1416339,90.2737027 90.004894,89.0595107 90.23968,87.995518 C90.2954253,87.7435707 90.5272601,87.4150703 90.5951382,87.0697733 C90.7974608,86.0396966 90.5941545,85.0257703 90.9037048,83.9608086 C91.1473445,83.1229224 91.206041,82.1093192 91.4539436,81.3295747 C91.5651063,80.9797556 91.8077623,80.8847909 91.9208924,80.5252815 C92.3619361,79.120191 92.2284753,77.6359632 92.5708169,76.173054 C92.9318497,74.6293924 92.8033076,73.0220981 92.7915027,71.4309542 C92.7833049,70.2975145 93.1899176,69.4008406 93.2433675,68.3210205 C93.2722239,67.7425108 93.2207415,67.2363552 93.3315762,66.676257 C93.3961752,66.3493716 93.6296496,66.1329553 93.6749016,65.6326139 C93.8404979,63.7966289 94.7320947,62.2952816 95,60.4899826 C93.9949452,60.5119472 93.6932648,60.2577389 92.8288848,59.7832382 C91.6929926,59.1598302 90.4698753,59.1653213 89.2539721,58.7499314 C88.2941693,58.4217539 87.1586049,58.0328507 86.1679783,57.8571336 C85.4327963,57.7269609 84.6999097,57.973094 83.9581694,57.7828415 C82.1769434,57.3257833 80.3150506,57.7508635 78.5082473,57.4075046 C77.2608645,57.1704158 76.2689262,56.9892076 74.9149714,57.0095572 C73.7390737,57.0273227 72.7527099,56.6190389 71.5915683,56.551853 C70.5645433,56.4927423 69.5355508,56.6894549 68.5327913,56.4775608 C67.8759806,56.3389898 67.43133,56.1458302 66.7332022,56.1222506 C66.1613211,56.103193 65.4936892,56.2831092 64.9349246,56.1619807 C63.9462655,55.9471795 63.3868451,55.6923252 62.3158797,55.7042765 C61.1960551,55.7168739 60.3454476,55.5550462 59.2623493,55.269183 C57.918232,54.9145187 56.3317866,54.8512089 55.1549051,54.5059119 C54.1600156,54.2142345 53.2595652,54.0540219 52.2361472,53.9642253 C51.4737484,53.8973624 51.1396045,53.6147292 50.4017992,53.5191185 C49.557422,53.4092953 46.3861707,52.6589447 45.5332678,52.6589447 Z" id="Stroke-11" stroke="#231F20" stroke-width="4"></path>
                                        <path d="M99,96.5614695 C99.2196273,97.268781 99.4289388,97.9800494 99.6578836,98.6843932 C99.9131171,99.4701849 99.8013069,99.9156757 99.8608725,100.713668 C99.9580409,102.022771 100.862173,103.247789 100.973984,104.556233 C101.05052,105.449522 100.979308,105.89963 101.246521,106.796877 C101.470474,107.548375 101.289781,108.09345 101.384287,108.845937 C101.465816,109.492245 101.896751,110.101621 102.015882,110.744301 C102.161968,111.53405 102.039509,112.201792 102.231849,113.006379 C102.405887,113.734794 102.224528,114.007827 102.264128,114.697991 C102.306056,115.429045 102.811199,116.238248 102.994222,116.955452 C103.187893,117.715853 102.952293,117.897215 102.992891,118.554735 C103.033156,119.203021 103.486054,120.070591 103.681056,120.692167 C103.871733,121.300224 104.18387,121.952468 104.226464,122.577342 C104.270057,123.211779 104.071061,123.487779 104.309324,124.219822 C104.750242,125.5741 105.277348,126.814286 105.065707,128.169884 C107.207406,127.516652 109.354429,126.878258 111.491469,126.210186 C113.363625,125.624552 115.071061,125.941441 116.892304,125.481441 C118.810715,124.99704 121.008652,125.388782 122.853189,125.079147 C125.021842,124.715104 126.990501,123.533284 129.189769,123.36808 C129.887917,123.31598 130.471926,123.099335 131.147114,122.991177 C131.658912,122.909399 131.794682,123.071636 132.187349,123.049213 C133.480155,122.975679 134.93635,122.89555 136.229489,122.742876 C138.170196,122.513041 140.118556,121.886848 142.004689,121.784296 C143.884832,121.682074 146.056813,122.162518 148.035122,121.56897 C149.112627,121.245816 149.674008,121.220095 150.760165,121.318361 C151.620039,121.396181 153.264249,121.549515 154,121.145572 C153.664902,120.066963 153.164418,118.922405 153.069912,117.815108 C153.047616,117.552628 153.172404,117.163524 153.133803,116.806736 C153.018,115.741647 152.513855,114.812744 152.491227,113.682035 C152.473258,112.792372 152.223015,111.785978 152.227341,110.951713 C152.229338,110.577448 152.435987,110.413233 152.43632,110.029076 C152.438317,108.527399 151.859299,107.119041 151.747822,105.590325 C151.630022,103.977523 151.018393,102.447158 150.524897,100.897998 C150.173493,99.7946579 150.295952,98.7994756 150.020753,97.7300997 C149.873336,97.1569961 149.670015,96.6785304 149.607787,96.0991615 C149.571515,95.7611688 149.732242,95.4808822 149.624425,94.9793341 C149.228763,93.1390052 149.638734,91.4104612 149.351222,89.5698026 C148.383198,89.8883401 148.013492,89.7297309 147.031492,89.5223188 C145.740682,89.2499462 144.556026,89.6172865 143.250908,89.5714514 C142.220656,89.5355088 141.001059,89.4916522 139.987446,89.6133295 C139.234723,89.7036807 138.598469,90.1610425 137.821455,90.1946769 C135.955288,90.2754654 134.278134,91.2409703 132.421618,91.4404684 C131.140126,91.5783035 130.122852,91.6947048 128.81607,92.1151347 C127.680996,92.4801668 126.600496,92.3736579 125.453775,92.6516363 C124.439829,92.897629 123.501422,93.3942309 122.464848,93.4839226 C121.785334,93.5429477 121.295831,93.4859011 120.611659,93.6695713 C120.051277,93.8202665 119.458283,94.1932126 118.879598,94.2400369 C117.855336,94.3231337 117.235721,94.2400369 116.200478,94.5684669 C115.118314,94.9120653 114.244131,95.005714 113.107061,95.0472623 C111.695789,95.0987032 110.137766,95.5062729 108.89188,95.5174843 C107.838335,95.5270471 106.916566,95.6371832 105.89663,95.8521795 C105.136919,96.0124375 104.727281,95.8356921 103.982545,95.9603372 C103.130657,96.1034482 99.8272628,96.3092115 99,96.5614695" id="Fill-13" fill="#FFFFFF"></path>
                                        <path d="M99,96.5614695 C99.2196273,97.268781 99.4289388,97.9800494 99.6578836,98.6843932 C99.9131171,99.4701849 99.8013069,99.9156757 99.8608725,100.713668 C99.9580409,102.022771 100.862173,103.247789 100.973984,104.556233 C101.05052,105.449522 100.979308,105.89963 101.246521,106.796877 C101.470474,107.548375 101.289781,108.09345 101.384287,108.845937 C101.465816,109.492245 101.896751,110.101621 102.015882,110.744301 C102.161968,111.53405 102.039509,112.201792 102.231849,113.006379 C102.405887,113.734794 102.224528,114.007827 102.264128,114.697991 C102.306056,115.429045 102.811199,116.238248 102.994222,116.955452 C103.187893,117.715853 102.952293,117.897215 102.992891,118.554735 C103.033156,119.203021 103.486054,120.070591 103.681056,120.692167 C103.871733,121.300224 104.18387,121.952468 104.226464,122.577342 C104.270057,123.211779 104.071061,123.487779 104.309324,124.219822 C104.750242,125.5741 105.277348,126.814286 105.065707,128.169884 C107.207406,127.516652 109.354429,126.878258 111.491469,126.210186 C113.363625,125.624552 115.071061,125.941441 116.892304,125.481441 C118.810715,124.99704 121.008652,125.388782 122.853189,125.079147 C125.021842,124.715104 126.990501,123.533284 129.189769,123.36808 C129.887917,123.31598 130.471926,123.099335 131.147114,122.991177 C131.658912,122.909399 131.794682,123.071636 132.187349,123.049213 C133.480155,122.975679 134.93635,122.89555 136.229489,122.742876 C138.170196,122.513041 140.118556,121.886848 142.004689,121.784296 C143.884832,121.682074 146.056813,122.162518 148.035122,121.56897 C149.112627,121.245816 149.674008,121.220095 150.760165,121.318361 C151.620039,121.396181 153.264249,121.549515 154,121.145572 C153.664902,120.066963 153.164418,118.922405 153.069912,117.815108 C153.047616,117.552628 153.172404,117.163524 153.133803,116.806736 C153.018,115.741647 152.513855,114.812744 152.491227,113.682035 C152.473258,112.792372 152.223015,111.785978 152.227341,110.951713 C152.229338,110.577448 152.435987,110.413233 152.43632,110.029076 C152.438317,108.527399 151.859299,107.119041 151.747822,105.590325 C151.630022,103.977523 151.018393,102.447158 150.524897,100.897998 C150.173493,99.7946579 150.295952,98.7994756 150.020753,97.7300997 C149.873336,97.1569961 149.670015,96.6785304 149.607787,96.0991615 C149.571515,95.7611688 149.732242,95.4808822 149.624425,94.9793341 C149.228763,93.1390052 149.638734,91.4104612 149.351222,89.5698026 C148.383198,89.8883401 148.013492,89.7297309 147.031492,89.5223188 C145.740682,89.2499462 144.556026,89.6172865 143.250908,89.5714514 C142.220656,89.5355088 141.001059,89.4916522 139.987446,89.6133295 C139.234723,89.7036807 138.598469,90.1610425 137.821455,90.1946769 C135.955288,90.2754654 134.278134,91.2409703 132.421618,91.4404684 C131.140126,91.5783035 130.122852,91.6947048 128.81607,92.1151347 C127.680996,92.4801668 126.600496,92.3736579 125.453775,92.6516363 C124.439829,92.897629 123.501422,93.3942309 122.464848,93.4839226 C121.785334,93.5429477 121.295831,93.4859011 120.611659,93.6695713 C120.051277,93.8202665 119.458283,94.1932126 118.879598,94.2400369 C117.855336,94.3231337 117.235721,94.2400369 116.200478,94.5684669 C115.118314,94.9120653 114.244131,95.005714 113.107061,95.0472623 C111.695789,95.0987032 110.137766,95.5062729 108.89188,95.5174843 C107.838335,95.5270471 106.916566,95.6371832 105.89663,95.8521795 C105.136919,96.0124375 104.727281,95.8356921 103.982545,95.9603372 C103.130657,96.1034482 99.8272628,96.3092115 99,96.5614695 Z" id="Stroke-15" stroke="#231F20" stroke-width="4"></path>
                                        <path d="M44,118.68172 C43.5929238,118.688851 43.0434534,118.56437 42.6452768,118.659028 C42.2431449,118.754982 42.205239,119.045114 41.8031071,119.140744 C41.1468409,119.297318 40.1675507,119.123887 39.4845857,119.119997 C38.2534686,119.112541 37.3720745,119.438008 36.231602,119.571241 C35.3175758,119.677893 34.6665836,119.670437 33.7874968,119.894438 C32.1450185,120.312617 30.3166366,119.741754 28.6497668,120.028969 C26.5125344,120.396901 24.5348363,120.428346 22.3343176,120.428346 C20.4373755,120.428346 18.6261337,120.316183 16.8956479,121.180095 C16.1207199,121.56683 16.0986356,121.685151 15.1411001,121.726321 C14.2600356,121.764573 13.6004733,122.160384 12.7009503,122.178862 C9.37479172,122.24791 6.03874469,122.174648 2.71159729,122.174648 C2.70104957,121.596329 2.76103975,121.077982 2.61139393,120.525272 C2.50426861,120.129137 2.03983918,119.585181 1.92414384,119.116755 C1.67956852,118.126093 1.88986374,117.078701 1.83415858,116.062105 C1.80449311,115.520417 1.60606407,115.241631 1.47850254,114.762185 C1.28501775,114.033127 1.40236117,113.29791 1.37829918,112.546485 C1.34368946,111.457599 0.923099002,110.605033 0.937602122,109.512581 C0.950786775,108.50571 1.00154769,107.461884 0.946172147,106.45631 C0.887500437,105.393358 0.486357344,104.513561 0.491960822,103.400038 C0.494597753,102.861917 0.614248486,102.176298 0.515033966,101.651791 C0.391757453,101.001183 0.0740072956,100.560312 0.031486787,99.8695068 C-0.0479507524,98.5883883 0.0479676043,97.263507 0.0479676043,95.9772018 C3.55706322,95.9772018 7.9142617,94.9690342 11.2229506,93.913862 C14.2986007,92.9329247 17.737488,93.3575869 20.9476216,93.3575869 C24.0031652,93.3575869 27.5373116,93.8188803 30.4972664,93.1390966 C31.2550544,92.9650175 31.8813254,92.9270896 32.6625162,92.9261171 C33.7192662,92.9244963 34.5752798,92.5805523 35.5980793,92.4619062 C36.8707281,92.3140848 38.2745641,92.4842739 39.5603974,92.4842739 C39.5603974,93.3504552 39.1203596,94.2169606 39.1164042,95.0831419 C39.1098119,96.58891 39.5086477,97.9312965 39.584789,99.4059442 C39.7064175,101.750663 40.5459503,104.038977 40.8498566,106.422596 C41.3792204,110.570995 44,114.466866 44,118.68172" id="Fill-17" fill="#FFFFFF"></path>
                                        <path d="M44,118.68172 C43.5929238,118.688851 43.0434534,118.56437 42.6452768,118.659028 C42.2431449,118.754982 42.205239,119.045114 41.8031071,119.140744 C41.1468409,119.297318 40.1675507,119.123887 39.4845857,119.119997 C38.2534686,119.112541 37.3720745,119.438008 36.231602,119.571241 C35.3175758,119.677893 34.6665836,119.670437 33.7874968,119.894438 C32.1450185,120.312617 30.3166366,119.741754 28.6497668,120.028969 C26.5125344,120.396901 24.5348363,120.428346 22.3343176,120.428346 C20.4373755,120.428346 18.6261337,120.316183 16.8956479,121.180095 C16.1207199,121.56683 16.0986356,121.685151 15.1411001,121.726321 C14.2600356,121.764573 13.6004733,122.160384 12.7009503,122.178862 C9.37479172,122.24791 6.03874469,122.174648 2.71159729,122.174648 C2.70104957,121.596329 2.76103975,121.077982 2.61139393,120.525272 C2.50426861,120.129137 2.03983918,119.585181 1.92414384,119.116755 C1.67956852,118.126093 1.88986374,117.078701 1.83415858,116.062105 C1.80449311,115.520417 1.60606407,115.241631 1.47850254,114.762185 C1.28501775,114.033127 1.40236117,113.29791 1.37829918,112.546485 C1.34368946,111.457599 0.923099002,110.605033 0.937602122,109.512581 C0.950786775,108.50571 1.00154769,107.461884 0.946172147,106.45631 C0.887500437,105.393358 0.486357344,104.513561 0.491960822,103.400038 C0.494597753,102.861917 0.614248486,102.176298 0.515033966,101.651791 C0.391757453,101.001183 0.0740072956,100.560312 0.031486787,99.8695068 C-0.0479507524,98.5883883 0.0479676043,97.263507 0.0479676043,95.9772018 C3.55706322,95.9772018 7.9142617,94.9690342 11.2229506,93.913862 C14.2986007,92.9329247 17.737488,93.3575869 20.9476216,93.3575869 C24.0031652,93.3575869 27.5373116,93.8188803 30.4972664,93.1390966 C31.2550544,92.9650175 31.8813254,92.9270896 32.6625162,92.9261171 C33.7192662,92.9244963 34.5752798,92.5805523 35.5980793,92.4619062 C36.8707281,92.3140848 38.2745641,92.4842739 39.5603974,92.4842739 C39.5603974,93.3504552 39.1203596,94.2169606 39.1164042,95.0831419 C39.1098119,96.58891 39.5086477,97.9312965 39.584789,99.4059442 C39.7064175,101.750663 40.5459503,104.038977 40.8498566,106.422596 C41.3792204,110.570995 44,114.466866 44,118.68172 Z" id="Stroke-19" stroke="#231F20" stroke-width="4"></path>
                                        <path d="M110.181789,138.105534 C108.799024,137.844107 107.382439,137.394584 106.017236,137.207475 C105.085854,137.079885 104.22374,136.788534 103.270894,136.766501 C102.849756,136.756636 102.255935,136.903627 101.838374,136.799714 C101.468943,136.707639 101.379512,136.408067 101.024715,136.311059 C99.8839024,135.998662 98.2357724,136.334407 97.0341463,136.333749 C96.1873171,136.33342 95.3242276,136.410698 94.5105691,136.235426 C94.1655285,136.161109 94.0243902,135.943088 93.5473171,135.880609 C93.1460163,135.828324 92.6299187,135.889488 92.2230894,135.891132 C91.3479675,135.89442 90.4718699,135.877321 89.596748,135.889488 C88.7508943,135.900997 88.3710569,135.611948 87.6403252,135.431415 C86.8712195,135.241346 85.7934959,135.487646 84.9957724,135.452461 C84.0497561,135.410698 83.3144715,135.034177 82.3678049,135.000965 C80.3108943,134.927962 78.4237398,134.563609 76.3554472,134.562293 C75.0386992,134.561307 73.721626,134.559005 72.404878,134.562293 C71.2360976,134.565253 70.4549593,134.279492 69.3590244,134.096328 C67.0708943,133.714546 64.3258537,134.562293 62,134.562293 C62.4936585,133.528752 62.4458537,132.66259 62.4380488,131.461999 C62.4295935,130.187747 62.8308943,129.185117 62.8744715,127.941448 C62.9154472,126.779988 62.7138211,125.517904 62.8660163,124.364994 C62.9466667,123.75434 63.2100813,123.606691 63.3365854,123.067724 C63.4845528,122.438655 63.2721951,121.585646 63.304065,120.940793 C63.3466667,120.07759 63.6627642,119.380123 63.7762602,118.529087 C63.9213008,117.442932 63.8920325,116.403143 64.0826016,115.307122 C64.4273171,113.32488 64.9986992,111.192359 65.0764228,109.198608 C65.1778862,106.591243 65.0660163,103.954611 65.0660163,101.343629 C70.1817886,101.343629 74.4217886,101.359085 79.537561,101.344616 C84.2917073,101.331133 88.7752846,103.177565 93.5170732,103.117058 C94.7622764,103.100945 95.859187,103.388679 97.0917073,103.521202 C98.5804878,103.681346 99.9450407,103.594533 101.428618,103.902655 C102.46439,104.118044 103.453659,103.948364 104.475447,104.222615 C105.475122,104.490948 106.533008,104.175591 107.489106,104.421234 C107.91252,104.53008 107.916098,104.755992 108.251707,104.85004 C108.613659,104.951323 108.95252,104.795453 109.319675,104.862536 C109.946667,104.977301 110.645203,105.39394 111.28878,105.556715 C112.540488,105.873059 113.879024,106.089763 115,106.658655 C115,108.054906 114.73626,109.580719 114.46439,110.946716 C114.020488,113.177232 114.192195,115.391963 113.783415,117.630041 C113.612358,118.56526 113.72878,119.451481 113.695935,120.389001 C113.66439,121.300214 113.313821,122.054571 113.225366,122.948027 C113.16813,123.52481 113.331382,124.117707 113.270569,124.695148 C113.184715,125.510669 112.867317,126.225894 112.798374,127.043059 C112.694634,128.2693 112.275772,129.263381 112.032846,130.477454 C111.80065,131.638256 111.917073,132.930594 111.932358,134.119347 C111.946667,135.249896 111.482927,136.093039 111.497236,137.219642 C111.51252,138.417602 110.673496,137.076268 110.181789,138.105534" id="Fill-21" fill="#FFFFFF"></path>
                                        <path d="M110.181789,138.105534 C108.799024,137.844107 107.382439,137.394584 106.017236,137.207475 C105.085854,137.079885 104.22374,136.788534 103.270894,136.766501 C102.849756,136.756636 102.255935,136.903627 101.838374,136.799714 C101.468943,136.707639 101.379512,136.408067 101.024715,136.311059 C99.8839024,135.998662 98.2357724,136.334407 97.0341463,136.333749 C96.1873171,136.33342 95.3242276,136.410698 94.5105691,136.235426 C94.1655285,136.161109 94.0243902,135.943088 93.5473171,135.880609 C93.1460163,135.828324 92.6299187,135.889488 92.2230894,135.891132 C91.3479675,135.89442 90.4718699,135.877321 89.596748,135.889488 C88.7508943,135.900997 88.3710569,135.611948 87.6403252,135.431415 C86.8712195,135.241346 85.7934959,135.487646 84.9957724,135.452461 C84.0497561,135.410698 83.3144715,135.034177 82.3678049,135.000965 C80.3108943,134.927962 78.4237398,134.563609 76.3554472,134.562293 C75.0386992,134.561307 73.721626,134.559005 72.404878,134.562293 C71.2360976,134.565253 70.4549593,134.279492 69.3590244,134.096328 C67.0708943,133.714546 64.3258537,134.562293 62,134.562293 C62.4936585,133.528752 62.4458537,132.66259 62.4380488,131.461999 C62.4295935,130.187747 62.8308943,129.185117 62.8744715,127.941448 C62.9154472,126.779988 62.7138211,125.517904 62.8660163,124.364994 C62.9466667,123.75434 63.2100813,123.606691 63.3365854,123.067724 C63.4845528,122.438655 63.2721951,121.585646 63.304065,120.940793 C63.3466667,120.07759 63.6627642,119.380123 63.7762602,118.529087 C63.9213008,117.442932 63.8920325,116.403143 64.0826016,115.307122 C64.4273171,113.32488 64.9986992,111.192359 65.0764228,109.198608 C65.1778862,106.591243 65.0660163,103.954611 65.0660163,101.343629 C70.1817886,101.343629 74.4217886,101.359085 79.537561,101.344616 C84.2917073,101.331133 88.7752846,103.177565 93.5170732,103.117058 C94.7622764,103.100945 95.859187,103.388679 97.0917073,103.521202 C98.5804878,103.681346 99.9450407,103.594533 101.428618,103.902655 C102.46439,104.118044 103.453659,103.948364 104.475447,104.222615 C105.475122,104.490948 106.533008,104.175591 107.489106,104.421234 C107.91252,104.53008 107.916098,104.755992 108.251707,104.85004 C108.613659,104.951323 108.95252,104.795453 109.319675,104.862536 C109.946667,104.977301 110.645203,105.39394 111.28878,105.556715 C112.540488,105.873059 113.879024,106.089763 115,106.658655 C115,108.054906 114.73626,109.580719 114.46439,110.946716 C114.020488,113.177232 114.192195,115.391963 113.783415,117.630041 C113.612358,118.56526 113.72878,119.451481 113.695935,120.389001 C113.66439,121.300214 113.313821,122.054571 113.225366,122.948027 C113.16813,123.52481 113.331382,124.117707 113.270569,124.695148 C113.184715,125.510669 112.867317,126.225894 112.798374,127.043059 C112.694634,128.2693 112.275772,129.263381 112.032846,130.477454 C111.80065,131.638256 111.917073,132.930594 111.932358,134.119347 C111.946667,135.249896 111.482927,136.093039 111.497236,137.219642 C111.51252,138.417602 110.673496,137.076268 110.181789,138.105534 Z" id="Stroke-23" stroke="#231F20" stroke-width="4"></path>
                                    </g>
                                </g>
                            </g>
                        </g>
                    </g>
                </g>
            </g>
        </g>
    </g>
</svg>