<?xml version="1.0" encoding="UTF-8"?>
<svg width="187px" height="209px" viewBox="0 0 187 209" version="1.1" xmlns="http://www.w3.org/2000/svg" xmlns:xlink="http://www.w3.org/1999/xlink">
    <!-- Generator: Sketch 49 (51002) - http://www.bohemiancoding.com/sketch -->
    <title>Group 10</title>
    <desc>Created with Sketch.</desc>
    <defs>
        <filter x="-0.4%" y="-0.7%" width="100.8%" height="101.5%" filterUnits="objectBoundingBox" id="filter-1">
            <feOffset dx="0" dy="0" in="SourceAlpha" result="shadowOffsetOuter1"></feOffset>
            <feGaussianBlur stdDeviation="2" in="shadowOffsetOuter1" result="shadowBlurOuter1"></feGaussianBlur>
            <feColorMatrix values="0 0 0 0 0   0 0 0 0 0   0 0 0 0 0  0 0 0 0.3 0" type="matrix" in="shadowBlurOuter1" result="shadowMatrixOuter1"></feColorMatrix>
            <feMerge>
                <feMergeNode in="shadowMatrixOuter1"></feMergeNode>
                <feMergeNode in="SourceGraphic"></feMergeNode>
            </feMerge>
        </filter>
    </defs>
    <g id="Page-1" stroke="none" stroke-width="1" fill="none" fill-rule="evenodd">
        <g id="Calc-Presets-Copy" transform="translate(-39.000000, -224.000000)">
            <g id="Group-Copy-2" filter="url(#filter-1)" transform="translate(0.000000, 50.000000)">
                <g id="Group-9" transform="translate(40.000000, 175.000000)">
                    <g id="Group-5">
                        <g id="Group-2">
                            <g id="Group-10">
                                <rect id="Rectangle-3" x="0" y="0" width="256" height="220"></rect>
                                <g id="Page-1" transform="translate(5.000000, 5.339436)">
                                    <path d="M129.233882,28.0282263 C131.049499,27.7623156 133.211996,28.7996069 134.928391,29.2946959 C137.352948,29.994608 140.002757,29.6991516 142.513734,29.6991516 C146.874736,29.6991516 150.98288,30.2824783 155.354285,30.2581231 C159.535246,30.2345664 163.138074,31.9398286 167.186204,31.9270521 C167.888766,31.9246565 168.73576,31.8160563 169.442723,31.9142756 C170.381339,32.0444361 170.222102,32.2049407 170.940267,32.6385429 C172.000511,33.2785651 173.724907,33.9748838 175,34.1549525 C174.95799,37.5938246 174.220621,40.2649095 173.185583,43.556852 C172.043321,47.1909649 172.115737,51.6152238 169.86562,54.6943578 C165.90791,60.1099925 165.668255,66.6471634 164.110297,72.8765008 C162.855609,77.8920716 161.72855,83.1863296 160.611093,88.1939151 C160.097375,90.4956797 160.057766,92.8297847 159.385612,95.1431279 C158.4642,98.3136937 157.926876,101.406802 157.262324,104.651631 C157.151898,105.191039 157.207511,105.890551 157.031871,106.41838 C156.846228,106.977352 156.265695,107.533528 156.11726,108.106075 C155.829194,109.217629 155.796787,110.446967 155.534326,111.594855 C154.963795,114.08667 153.736713,116.285424 153.342623,118.859088 C152.941731,121.475873 152.932128,124.216829 152.129944,126.753761 C151.516203,128.69459 151.247341,130.675345 150.727222,132.638133 C150.137886,134.862839 149.176865,137.001304 148.462701,139.191275 C147.780945,141.282626 147.852561,143.435864 146.969558,145.413026 C145.914116,147.777076 145.495619,150.413425 144.458181,152.787856 C143.330722,155.368307 142.836208,157.41534 142.350897,160.351538 C141.948804,162.783063 141.781966,165.617448 140.79934,167.82778 C140.003557,169.619284 139.714291,171.536157 139.264187,173.397532 C139.05694,174.255153 138.745668,175.289251 138.707259,176.180411 C138.661249,177.247248 138.428395,177.462452 138.147931,178.356806 C137.790649,179.497108 137.617809,181.05544 137.305737,182.26721 C137.059681,183.223451 136.997266,184.218021 136.768414,185.09321 C136.561966,185.883756 136.630382,186.748564 136.44714,187.600596 C136.213486,188.688594 135.138039,189.456781 135.373293,190.66376 C134.119405,190.66376 132.841511,190.736825 131.590424,190.676536 C129.961649,190.597881 128.491311,189.738662 126.864138,189.521063 C125.653859,189.358961 124.397971,189.759025 123.2185,189.426037 C122.791201,189.30506 122.551946,189.056318 121.989417,188.980058 C121.282455,188.883835 120.459066,188.988043 119.745702,188.992036 C116.99787,189.007208 114.717346,187.793442 112.216371,186.764934 C110.896468,186.221933 109.7298,185.708478 108.310674,185.645394 C106.347822,185.558354 104.679439,185.543981 102.748195,185.161485 C100.238418,184.664 97.5185934,183.978861 94.958405,183.959297 C92.721891,183.942128 91.3215692,183.022221 89.1998816,182.280386 C85.020121,180.818676 80.4482703,180.473711 76.1960931,179.369742 C72.0747459,178.299711 67.7169444,178.579995 63.6632128,177.449276 C61.8587981,176.945802 60.1103963,177.008886 58.3519922,176.613614 C56.7908334,176.262659 55.1760623,175.856207 53.5768948,175.57233 C52.5450576,175.389466 51.275966,175.274078 50.2805372,175.015355 C49.7420135,174.875612 49.5451682,174.575364 48.8770147,174.498705 C47.6147246,174.354171 46.2304064,174.511482 44.9573138,174.511482 L40.7711518,174.511482 C39.5280661,174.511482 36.4461578,171.151265 36.7094183,169.222414 C36.899462,167.829378 37.1211129,166.530168 37.1491194,165.125154 C37.1875282,163.209479 37.8004691,162.521944 39.2119935,161.004336 C40.9595951,159.125793 43.0984867,157.004496 43.3245386,154.309855 C43.4005561,153.401526 43.2101123,152.570655 43.408958,151.664722 C43.5693949,150.934865 43.9314781,150.111979 44.1255227,149.453192 C44.648843,147.674864 44.2571529,145.582314 44.705656,143.66664 C45.5426484,140.094812 46.0199581,135.924486 47.7627586,132.657298 C48.2628735,131.719424 48.8590105,130.974794 49.1694819,129.950279 C49.3611259,129.318641 49.2943106,128.649073 49.4751521,128.052571 C49.7116065,127.274403 49.9456603,127.374219 49.9756672,126.191595 C50.0524848,123.177941 50.3737586,120.460142 51.0727193,117.521948 C52.046143,113.430677 53.6689159,109.397698 55.1384537,105.45096 C56.3819394,102.112304 56.9496699,98.8403246 57.8002654,95.3974599 C58.1935558,93.8059883 58.7488834,92.0691842 58.9233235,90.4773134 C59.1937856,88.007059 58.9077199,85.3411645 58.9101204,82.8525438 C58.9161218,76.8264325 60.1660091,70.8446396 61.2538591,64.9123557 C61.5635303,63.2254597 62.5489567,61.6727169 62.7966136,60.0197585 C62.9458479,59.0243901 62.7734083,57.9807106 62.8582278,56.9693716 C63.0774782,54.3565794 63.872861,51.7952924 64.3545717,49.2308113 C65.1327505,45.0876352 65.4528241,40.7771669 66.7219157,36.736602 C67.5769122,34.0152096 67.9473974,31.2818393 68.8163971,28.5744213 C69.3677238,26.8567819 69.5313614,25.6326345 69.5157578,23.8511127 C69.5021547,22.3394942 70.1042931,21.1660534 70.0726858,19.6735997 C72.8753299,19.3374183 76.2120968,21.0718268 78.8647064,21.9142766 C82.309498,23.0086628 86.0659614,23.598777 89.6467843,24.1433749 C91.49921,24.4252562 93.2740179,25.1175822 95.1484487,25.2433508 C98.0951259,25.4409871 101.20464,25.7072971 104.105307,26.2355251 C109.378119,27.1953589 114.963403,26.3537076 120.179801,27.347479 C121.486102,27.5962213 122.849215,27.4704527 124.181921,27.4712512 C124.932093,27.4716505 125.732677,27.3734312 126.472047,27.4584747 C127.26703,27.5499065 128.455303,27.9280107 129.233882,28.0282263" id="Fill-1" fill="#FFFFFF"></path>
                                    <path d="M129.233882,28.0282263 C131.049499,27.7623156 133.211996,28.7996069 134.928391,29.2946959 C137.352948,29.994608 140.002757,29.6991516 142.513734,29.6991516 C146.874736,29.6991516 150.98288,30.2824783 155.354285,30.2581231 C159.535246,30.2345664 163.138074,31.9398286 167.186204,31.9270521 C167.888766,31.9246565 168.73576,31.8160563 169.442723,31.9142756 C170.381339,32.0444361 170.222102,32.2049407 170.940267,32.6385429 C172.000511,33.2785651 173.724907,33.9748838 175,34.1549525 C174.95799,37.5938246 174.220621,40.2649095 173.185583,43.556852 C172.043321,47.1909649 172.115737,51.6152238 169.86562,54.6943578 C165.90791,60.1099925 165.668255,66.6471634 164.110297,72.8765008 C162.855609,77.8920716 161.72855,83.1863296 160.611093,88.1939151 C160.097375,90.4956797 160.057766,92.8297847 159.385612,95.1431279 C158.4642,98.3136937 157.926876,101.406802 157.262324,104.651631 C157.151898,105.191039 157.207511,105.890551 157.031871,106.41838 C156.846228,106.977352 156.265695,107.533528 156.11726,108.106075 C155.829194,109.217629 155.796787,110.446967 155.534326,111.594855 C154.963795,114.08667 153.736713,116.285424 153.342623,118.859088 C152.941731,121.475873 152.932128,124.216829 152.129944,126.753761 C151.516203,128.69459 151.247341,130.675345 150.727222,132.638133 C150.137886,134.862839 149.176865,137.001304 148.462701,139.191275 C147.780945,141.282626 147.852561,143.435864 146.969558,145.413026 C145.914116,147.777076 145.495619,150.413425 144.458181,152.787856 C143.330722,155.368307 142.836208,157.41534 142.350897,160.351538 C141.948804,162.783063 141.781966,165.617448 140.79934,167.82778 C140.003557,169.619284 139.714291,171.536157 139.264187,173.397532 C139.05694,174.255153 138.745668,175.289251 138.707259,176.180411 C138.661249,177.247248 138.428395,177.462452 138.147931,178.356806 C137.790649,179.497108 137.617809,181.05544 137.305737,182.26721 C137.059681,183.223451 136.997266,184.218021 136.768414,185.09321 C136.561966,185.883756 136.630382,186.748564 136.44714,187.600596 C136.213486,188.688594 135.138039,189.456781 135.373293,190.66376 C134.119405,190.66376 132.841511,190.736825 131.590424,190.676536 C129.961649,190.597881 128.491311,189.738662 126.864138,189.521063 C125.653859,189.358961 124.397971,189.759025 123.2185,189.426037 C122.791201,189.30506 122.551946,189.056318 121.989417,188.980058 C121.282455,188.883835 120.459066,188.988043 119.745702,188.992036 C116.99787,189.007208 114.717346,187.793442 112.216371,186.764934 C110.896468,186.221933 109.7298,185.708478 108.310674,185.645394 C106.347822,185.558354 104.679439,185.543981 102.748195,185.161485 C100.238418,184.664 97.5185934,183.978861 94.958405,183.959297 C92.721891,183.942128 91.3215692,183.022221 89.1998816,182.280386 C85.020121,180.818676 80.4482703,180.473711 76.1960931,179.369742 C72.0747459,178.299711 67.7169444,178.579995 63.6632128,177.449276 C61.8587981,176.945802 60.1103963,177.008886 58.3519922,176.613614 C56.7908334,176.262659 55.1760623,175.856207 53.5768948,175.57233 C52.5450576,175.389466 51.275966,175.274078 50.2805372,175.015355 C49.7420135,174.875612 49.5451682,174.575364 48.8770147,174.498705 C47.6147246,174.354171 46.2304064,174.511482 44.9573138,174.511482 L40.7711518,174.511482 C39.5280661,174.511482 36.4461578,171.151265 36.7094183,169.222414 C36.899462,167.829378 37.1211129,166.530168 37.1491194,165.125154 C37.1875282,163.209479 37.8004691,162.521944 39.2119935,161.004336 C40.9595951,159.125793 43.0984867,157.004496 43.3245386,154.309855 C43.4005561,153.401526 43.2101123,152.570655 43.408958,151.664722 C43.5693949,150.934865 43.9314781,150.111979 44.1255227,149.453192 C44.648843,147.674864 44.2571529,145.582314 44.705656,143.66664 C45.5426484,140.094812 46.0199581,135.924486 47.7627586,132.657298 C48.2628735,131.719424 48.8590105,130.974794 49.1694819,129.950279 C49.3611259,129.318641 49.2943106,128.649073 49.4751521,128.052571 C49.7116065,127.274403 49.9456603,127.374219 49.9756672,126.191595 C50.0524848,123.177941 50.3737586,120.460142 51.0727193,117.521948 C52.046143,113.430677 53.6689159,109.397698 55.1384537,105.45096 C56.3819394,102.112304 56.9496699,98.8403246 57.8002654,95.3974599 C58.1935558,93.8059883 58.7488834,92.0691842 58.9233235,90.4773134 C59.1937856,88.007059 58.9077199,85.3411645 58.9101204,82.8525438 C58.9161218,76.8264325 60.1660091,70.8446396 61.2538591,64.9123557 C61.5635303,63.2254597 62.5489567,61.6727169 62.7966136,60.0197585 C62.9458479,59.0243901 62.7734083,57.9807106 62.8582278,56.9693716 C63.0774782,54.3565794 63.872861,51.7952924 64.3545717,49.2308113 C65.1327505,45.0876352 65.4528241,40.7771669 66.7219157,36.736602 C67.5769122,34.0152096 67.9473974,31.2818393 68.8163971,28.5744213 C69.3677238,26.8567819 69.5313614,25.6326345 69.5157578,23.8511127 C69.5021547,22.3394942 70.1042931,21.1660534 70.0726858,19.6735997 C72.8753299,19.3374183 76.2120968,21.0718268 78.8647064,21.9142766 C82.309498,23.0086628 86.0659614,23.598777 89.6467843,24.1433749 C91.49921,24.4252562 93.2740179,25.1175822 95.1484487,25.2433508 C98.0951259,25.4409871 101.20464,25.7072971 104.105307,26.2355251 C109.378119,27.1953589 114.963403,26.3537076 120.179801,27.347479 C121.486102,27.5962213 122.849215,27.4704527 124.181921,27.4712512 C124.932093,27.4716505 125.732677,27.3734312 126.472047,27.4584747 C127.26703,27.5499065 128.455303,27.9280107 129.233882,28.0282263 Z" id="Stroke-3" stroke="#231F20" stroke-width="4"></path>
                                    <path d="M6.80309391,160.578157 C6.61030095,159.363014 7.46243781,158.541216 7.7410056,157.462108 C7.95063288,156.649486 8.00354072,155.958937 8.298542,155.146314 C8.98594309,153.252191 9.44006871,151.348093 9.96513893,149.450778 C10.462152,147.655589 11.5363414,145.998829 11.8990808,144.137019 C12.3307607,141.921357 13.0907096,139.755561 13.6105692,137.55825 C14.0141919,135.851623 14.7589098,134.255102 15.1340745,132.55446 C15.3745647,131.464979 15.2583278,130.374302 15.698024,129.276045 C16.1128695,128.238426 16.4198953,127.486442 16.6639928,126.43486 C16.8259229,125.736332 17.064409,125.061341 17.2499872,124.366004 C17.9129385,121.885053 20.132262,119.991727 20.7683586,117.582583 C20.9976259,116.71451 20.8084402,115.906276 21.0970285,115.014665 C21.5130765,113.728113 22.282645,112.589564 22.838979,111.36724 C23.4382003,110.051167 23.1864873,109.932685 23.4189611,108.825652 C23.6061427,107.935637 24.163679,107.114238 24.4751138,106.254542 C24.7488718,105.498967 25.3172303,104.93049 25.5416878,104.239941 C25.6992088,103.754442 25.50842,102.935836 25.5541131,102.402066 C25.6571231,101.190114 25.9136459,99.767128 26.1501279,98.5898829 C26.4856117,96.9187615 26.979819,94.9165273 27.6972814,93.3662819 C28.3570261,91.9405029 29.3061607,90.1852071 29.7117875,88.66169 C29.8853412,88.0086401 29.6368347,87.1972147 29.7783231,86.4962932 C30.0821423,84.9887334 30.9226555,83.4855618 31.3884048,82.0218844 C31.6581546,81.1745552 31.8252953,80.1792226 32.3892448,79.4759075 C32.885857,78.8559689 33.4345754,78.5703344 33.8169548,77.8454769 C34.2694771,76.9885734 34.7448461,76.0123895 35.2001741,75.1558849 C35.7340623,74.1517759 35.8831662,73.1588369 36.4010218,72.1164305 C36.6066409,71.7031381 37.2074655,71.0504872 37.3806184,70.5526214 C37.6511699,69.7735094 37.6804295,68.9652754 37.983848,68.1722008 C39.1710678,65.0713111 40.9090101,62.1503391 42.4172844,59.1751126 C43.5267457,56.9861788 43.9243562,54.9268976 44.8105625,52.7611018 C45.5252191,51.0145824 46.2587142,49.1252458 46.8398988,47.2730097 C47.1140576,46.3989521 47.2659672,45.6936423 47.3329036,44.7290274 C47.4763961,42.6601718 48.3966718,40.9994226 48.8291533,39.0354858 C49.2291687,37.2195524 49.8660668,35.7068065 50.4616808,33.8613523 C50.7863426,32.8552486 51.1258345,31.738641 51.3871672,30.7309416 C51.5094164,30.2598042 51.4100138,29.8481076 51.5330646,29.3933264 C51.7499066,28.5922731 52.4886122,27.9416169 52.5423217,27.109447 C54.2209431,27.0994738 54.6714614,28.0289827 56.1689136,28.5448004 C57.5216708,29.0107516 58.7910582,29.4986441 60.1185639,29.7463802 C61.561505,30.0156585 62.7948188,30.6383896 64.2381607,30.7309416 C65.6754903,30.8226957 67.3589216,31.1414415 68.6840225,31.767364 C70.1385872,32.454722 71.7943621,32.8109672 73.3443213,33.447262 C75.0193354,34.1354178 76.5111761,35.005885 78.0875892,35.7786141 C79.1978522,36.3227558 80.3065119,36.5609176 81.4191798,37.210776 C82.0256159,37.5650266 82.726244,38.0908175 83.3382915,38.3736595 C84.8485698,39.0717885 86.4827005,39.4651344 88.1160297,39.5110114 C90.1654068,39.5684575 92.008764,40.0671211 93.8324812,40.8326695 C94.8208958,41.2479565 95.9924838,41.2415736 97.049839,41.4657728 C97.9272273,41.6516746 98.0146054,41.8714855 98.7256547,42.243688 C99.8503471,42.8317121 101.211922,42.8520576 102.371486,43.4061726 C103.137046,43.7715933 103.86012,44.2455232 104.59602,44.6699856 C106.364424,45.6900519 108.598177,46.8002766 110.496446,47.2909616 C112.34782,47.7700775 114.03085,48.6062367 115.97842,48.9058338 C117.501925,49.1400062 118.843059,49.4723156 120.215456,49.972176 C120.699643,50.1481046 121.208681,50.6719008 121.698078,50.8199042 C122.029554,50.9196369 122.401913,50.8099309 122.698918,50.8917117 C123.406761,51.0859911 124.078931,51.363647 124.787976,51.5671017 C126.596462,52.0861108 128.157644,52.9166849 130.002605,53.3926094 C131.099641,53.6754514 132.169822,53.6594942 133.245214,54.1270412 C134.016787,54.462941 134.601178,55.0772946 135.299,55.4451088 C136.70186,56.1855246 138.396113,56.5325944 139.849475,57.2422925 C141.253136,57.9276557 142.815921,58.4949354 144.276098,58.9297701 C145.224431,59.2122132 148.151597,58.6712629 147.659794,60.2179179 C147.069792,62.0729466 147.243746,63.7049728 146.378783,65.4762259 C144.955482,68.3912139 143.668459,71.6042032 142.736961,74.6871411 C142.205878,76.4460274 141.412661,78.1494623 140.927673,79.8540939 C140.556917,81.158199 139.744461,82.3115082 139.314785,83.6144165 C139.016577,84.5183938 138.986516,85.5109339 138.697928,86.4061348 C138.512751,86.9801963 138.029766,87.4924236 137.87465,88.0585065 C137.665824,88.8196666 137.846192,89.5664653 137.680655,90.3395933 C137.474234,91.3022135 136.934333,92.2544616 136.614081,93.1883588 C136.242523,94.271855 135.7896,95.3489684 135.484578,96.4488209 C135.196792,97.4860412 135.383573,98.5467984 135.081757,99.536147 C134.549072,101.280672 133.625189,102.994878 133.079276,104.756557 C132.493682,106.646292 132.112104,108.921395 131.28081,110.88972 C130.613049,112.471082 130.029059,114.021327 129.366107,115.610668 C128.162855,118.494938 127.891101,121.294635 127.271438,124.302175 C126.747971,126.842966 126.118688,129.32272 125.785209,131.846756 C125.581995,133.38264 124.812025,134.664405 124.231642,135.982473 C123.184708,138.360899 122.965862,141.000624 122.059615,143.403385 C121.805898,144.077179 121.146955,145.031422 120.788224,145.654153 C120.026671,146.975013 119.68277,148.445472 119.060302,149.777902 C118.214979,151.58825 117.549623,153.627186 116.999301,155.640191 C116.551588,157.2786 115.771999,158.953312 115.521088,160.639992 C115.278193,162.272816 115.300238,162.688901 114.350302,163.963884 C113.939063,164.515605 113.474516,165.082486 113.184726,165.712398 C112.960669,166.199492 112.955459,166.751214 112.723385,167.211979 C112.428384,167.798008 111.818341,168.45026 111.471634,169.086555 C110.323294,171.194905 108.617817,173.089428 108.223814,175.563996 C108.071905,176.519435 108.151667,176.665045 107.55926,177.440966 C105.965211,179.526975 105.102653,182.007129 103.883768,184.235956 C103.165504,185.548837 102.409563,186.998951 102.440025,188.513293 C102.464475,189.737212 101.003898,192.27561 100.490452,193.29807 C100.132522,194.010959 99.1044267,195.492987 99.3212687,196.273296 C95.6381616,196.571297 91.905754,194.942463 88.3893868,194.064017 C85.9231601,193.447669 83.5370967,192.714434 81.1943215,191.7195 C78.0659451,190.390661 74.9163254,189.126449 71.8745255,187.452136 C67.9946173,185.315861 63.4357251,184.420661 59.3012982,182.822942 C55.4951403,181.352084 51.6817677,179.342669 47.7509557,178.268348 C46.8631461,178.025799 46.0791482,178.08883 45.1889337,177.801599 C43.6738456,177.313308 42.3723929,176.794299 40.990376,175.980879 C38.0916677,174.27505 35.2851473,173.457242 32.1559693,172.361379 C29.9354433,171.583863 27.6563981,170.965121 25.5000028,170.018857 C23.1207533,168.974855 20.6701584,168.727517 18.2396043,167.820748 C17.2640158,167.456524 16.00024,167.266234 15.0839724,166.785921 C14.5957773,166.529807 14.4214219,166.171168 13.9761143,165.866385 C13.0181617,165.210543 11.359982,164.831558 10.3138497,164.328108 C9.20999978,163.797131 7.81114857,163.01762 6.68926189,162.764299 C6.02671145,162.6147 5.39622637,162.699273 4.72405632,162.53252 C4.01060212,162.354996 3.63543745,161.995559 2.82258065,162.131993 C2.93641266,162.131195 6.68886107,160.578955 6.80309391,160.578157" id="Fill-5" fill="#FFFFFF"></path>
                                    <path d="M6.80309391,160.578157 C6.61030095,159.363014 7.46243781,158.541216 7.7410056,157.462108 C7.95063288,156.649486 8.00354072,155.958937 8.298542,155.146314 C8.98594309,153.252191 9.44006871,151.348093 9.96513893,149.450778 C10.462152,147.655589 11.5363414,145.998829 11.8990808,144.137019 C12.3307607,141.921357 13.0907096,139.755561 13.6105692,137.55825 C14.0141919,135.851623 14.7589098,134.255102 15.1340745,132.55446 C15.3745647,131.464979 15.2583278,130.374302 15.698024,129.276045 C16.1128695,128.238426 16.4198953,127.486442 16.6639928,126.43486 C16.8259229,125.736332 17.064409,125.061341 17.2499872,124.366004 C17.9129385,121.885053 20.132262,119.991727 20.7683586,117.582583 C20.9976259,116.71451 20.8084402,115.906276 21.0970285,115.014665 C21.5130765,113.728113 22.282645,112.589564 22.838979,111.36724 C23.4382003,110.051167 23.1864873,109.932685 23.4189611,108.825652 C23.6061427,107.935637 24.163679,107.114238 24.4751138,106.254542 C24.7488718,105.498967 25.3172303,104.93049 25.5416878,104.239941 C25.6992088,103.754442 25.50842,102.935836 25.5541131,102.402066 C25.6571231,101.190114 25.9136459,99.767128 26.1501279,98.5898829 C26.4856117,96.9187615 26.979819,94.9165273 27.6972814,93.3662819 C28.3570261,91.9405029 29.3061607,90.1852071 29.7117875,88.66169 C29.8853412,88.0086401 29.6368347,87.1972147 29.7783231,86.4962932 C30.0821423,84.9887334 30.9226555,83.4855618 31.3884048,82.0218844 C31.6581546,81.1745552 31.8252953,80.1792226 32.3892448,79.4759075 C32.885857,78.8559689 33.4345754,78.5703344 33.8169548,77.8454769 C34.2694771,76.9885734 34.7448461,76.0123895 35.2001741,75.1558849 C35.7340623,74.1517759 35.8831662,73.1588369 36.4010218,72.1164305 C36.6066409,71.7031381 37.2074655,71.0504872 37.3806184,70.5526214 C37.6511699,69.7735094 37.6804295,68.9652754 37.983848,68.1722008 C39.1710678,65.0713111 40.9090101,62.1503391 42.4172844,59.1751126 C43.5267457,56.9861788 43.9243562,54.9268976 44.8105625,52.7611018 C45.5252191,51.0145824 46.2587142,49.1252458 46.8398988,47.2730097 C47.1140576,46.3989521 47.2659672,45.6936423 47.3329036,44.7290274 C47.4763961,42.6601718 48.3966718,40.9994226 48.8291533,39.0354858 C49.2291687,37.2195524 49.8660668,35.7068065 50.4616808,33.8613523 C50.7863426,32.8552486 51.1258345,31.738641 51.3871672,30.7309416 C51.5094164,30.2598042 51.4100138,29.8481076 51.5330646,29.3933264 C51.7499066,28.5922731 52.4886122,27.9416169 52.5423217,27.109447 C54.2209431,27.0994738 54.6714614,28.0289827 56.1689136,28.5448004 C57.5216708,29.0107516 58.7910582,29.4986441 60.1185639,29.7463802 C61.561505,30.0156585 62.7948188,30.6383896 64.2381607,30.7309416 C65.6754903,30.8226957 67.3589216,31.1414415 68.6840225,31.767364 C70.1385872,32.454722 71.7943621,32.8109672 73.3443213,33.447262 C75.0193354,34.1354178 76.5111761,35.005885 78.0875892,35.7786141 C79.1978522,36.3227558 80.3065119,36.5609176 81.4191798,37.210776 C82.0256159,37.5650266 82.726244,38.0908175 83.3382915,38.3736595 C84.8485698,39.0717885 86.4827005,39.4651344 88.1160297,39.5110114 C90.1654068,39.5684575 92.008764,40.0671211 93.8324812,40.8326695 C94.8208958,41.2479565 95.9924838,41.2415736 97.049839,41.4657728 C97.9272273,41.6516746 98.0146054,41.8714855 98.7256547,42.243688 C99.8503471,42.8317121 101.211922,42.8520576 102.371486,43.4061726 C103.137046,43.7715933 103.86012,44.2455232 104.59602,44.6699856 C106.364424,45.6900519 108.598177,46.8002766 110.496446,47.2909616 C112.34782,47.7700775 114.03085,48.6062367 115.97842,48.9058338 C117.501925,49.1400062 118.843059,49.4723156 120.215456,49.972176 C120.699643,50.1481046 121.208681,50.6719008 121.698078,50.8199042 C122.029554,50.9196369 122.401913,50.8099309 122.698918,50.8917117 C123.406761,51.0859911 124.078931,51.363647 124.787976,51.5671017 C126.596462,52.0861108 128.157644,52.9166849 130.002605,53.3926094 C131.099641,53.6754514 132.169822,53.6594942 133.245214,54.1270412 C134.016787,54.462941 134.601178,55.0772946 135.299,55.4451088 C136.70186,56.1855246 138.396113,56.5325944 139.849475,57.2422925 C141.253136,57.9276557 142.815921,58.4949354 144.276098,58.9297701 C145.224431,59.2122132 148.151597,58.6712629 147.659794,60.2179179 C147.069792,62.0729466 147.243746,63.7049728 146.378783,65.4762259 C144.955482,68.3912139 143.668459,71.6042032 142.736961,74.6871411 C142.205878,76.4460274 141.412661,78.1494623 140.927673,79.8540939 C140.556917,81.158199 139.744461,82.3115082 139.314785,83.6144165 C139.016577,84.5183938 138.986516,85.5109339 138.697928,86.4061348 C138.512751,86.9801963 138.029766,87.4924236 137.87465,88.0585065 C137.665824,88.8196666 137.846192,89.5664653 137.680655,90.3395933 C137.474234,91.3022135 136.934333,92.2544616 136.614081,93.1883588 C136.242523,94.271855 135.7896,95.3489684 135.484578,96.4488209 C135.196792,97.4860412 135.383573,98.5467984 135.081757,99.536147 C134.549072,101.280672 133.625189,102.994878 133.079276,104.756557 C132.493682,106.646292 132.112104,108.921395 131.28081,110.88972 C130.613049,112.471082 130.029059,114.021327 129.366107,115.610668 C128.162855,118.494938 127.891101,121.294635 127.271438,124.302175 C126.747971,126.842966 126.118688,129.32272 125.785209,131.846756 C125.581995,133.38264 124.812025,134.664405 124.231642,135.982473 C123.184708,138.360899 122.965862,141.000624 122.059615,143.403385 C121.805898,144.077179 121.146955,145.031422 120.788224,145.654153 C120.026671,146.975013 119.68277,148.445472 119.060302,149.777902 C118.214979,151.58825 117.549623,153.627186 116.999301,155.640191 C116.551588,157.2786 115.771999,158.953312 115.521088,160.639992 C115.278193,162.272816 115.300238,162.688901 114.350302,163.963884 C113.939063,164.515605 113.474516,165.082486 113.184726,165.712398 C112.960669,166.199492 112.955459,166.751214 112.723385,167.211979 C112.428384,167.798008 111.818341,168.45026 111.471634,169.086555 C110.323294,171.194905 108.617817,173.089428 108.223814,175.563996 C108.071905,176.519435 108.151667,176.665045 107.55926,177.440966 C105.965211,179.526975 105.102653,182.007129 103.883768,184.235956 C103.165504,185.548837 102.409563,186.998951 102.440025,188.513293 C102.464475,189.737212 101.003898,192.27561 100.490452,193.29807 C100.132522,194.010959 99.1044267,195.492987 99.3212687,196.273296 C95.6381616,196.571297 91.905754,194.942463 88.3893868,194.064017 C85.9231601,193.447669 83.5370967,192.714434 81.1943215,191.7195 C78.0659451,190.390661 74.9163254,189.126449 71.8745255,187.452136 C67.9946173,185.315861 63.4357251,184.420661 59.3012982,182.822942 C55.4951403,181.352084 51.6817677,179.342669 47.7509557,178.268348 C46.8631461,178.025799 46.0791482,178.08883 45.1889337,177.801599 C43.6738456,177.313308 42.3723929,176.794299 40.990376,175.980879 C38.0916677,174.27505 35.2851473,173.457242 32.1559693,172.361379 C29.9354433,171.583863 27.6563981,170.965121 25.5000028,170.018857 C23.1207533,168.974855 20.6701584,168.727517 18.2396043,167.820748 C17.2640158,167.456524 16.00024,167.266234 15.0839724,166.785921 C14.5957773,166.529807 14.4214219,166.171168 13.9761143,165.866385 C13.0181617,165.210543 11.359982,164.831558 10.3138497,164.328108 C9.20999978,163.797131 7.81114857,163.01762 6.68926189,162.764299 C6.02671145,162.6147 5.39622637,162.699273 4.72405632,162.53252 C4.01060212,162.354996 3.63543745,161.995559 2.82258065,162.131993 C2.93641266,162.131195 6.68886107,160.578955 6.80309391,160.578157 Z" id="Stroke-7" stroke="#231F20" stroke-width="4"></path>
                                    <path d="M31.8606425,5.81017418 C31.8606425,7.74900763 31.8755292,9.46623726 31.4027753,11.3002689 C30.9268026,13.1471008 30.5502088,14.7315281 30.0549236,16.4899584 C29.4477868,18.6443956 28.6266031,20.7664322 28.2085679,22.9380697 C28.0902788,23.5504803 27.7985796,23.8868861 27.659771,24.4572959 C27.4155483,25.4597132 27.6666108,26.6549338 27.4453217,27.709752 C27.1318959,29.2037778 26.7134584,30.7522045 26.6309779,32.2710307 C26.5851107,33.1214454 26.7384037,33.9258593 26.5251615,34.7446734 C26.3243919,35.5174867 25.8439934,36.4891035 25.6645481,37.4083194 C25.4505012,38.5059383 25.2935871,39.4975554 25.1048879,40.5695739 C24.9097512,41.677993 24.2969816,42.6852104 24.1384581,43.8488305 C23.9867745,44.9648497 23.9413096,45.7196628 23.6407588,46.7516806 C22.9684424,49.0605204 22.7487626,51.4485616 22.0905282,53.7118007 C21.6234071,55.3186284 21.7384774,56.9134559 21.4391336,58.4986832 C21.2009461,59.759905 20.684739,60.9495255 20.4984538,62.2615482 C20.0683483,65.2880004 19.0991021,68.0820486 18.3994262,71.118501 C17.7488363,73.9405497 17.184348,76.6373962 16.1833166,79.3910437 C15.6663049,80.8130682 15.9338635,81.7342841 15.7117697,83.0887075 C15.4337501,84.7843368 14.5087618,86.4147649 14.2102227,88.1207943 C13.685164,91.1264462 12.1876404,93.8592933 11.5587771,96.8825455 C11.3958278,97.667759 11.182988,98.0861663 10.9906676,98.825379 C10.7947262,99.579792 10.7528825,100.531008 10.5991871,101.321022 C10.479691,101.934633 10.0737261,102.617844 9.99285504,103.098253 C9.82869877,104.06987 10.0745308,105.067487 9.84318314,106.049504 C9.59815577,107.090722 9.08798385,107.989937 8.84577288,109.034355 C8.30220642,111.378796 7.17725317,113.724836 6.35325309,115.988075 C5.76623349,117.600103 5.41458502,119.794541 5.22628812,121.530971 C5.1920889,121.849776 5.31681548,122.216983 5.26531547,122.532988 C5.18806546,123.011396 4.92533497,123.381803 4.84406152,123.78941 C4.4047021,125.992248 3.6301903,128.103484 3.13570978,130.303522 C2.83958474,131.621545 2.92246757,132.865166 2.31774484,134.21159 C1.75124478,135.473211 1.6916979,136.240825 1.48167444,137.526847 C1.25515489,138.910871 0.7196353,140.338895 0.526912623,141.75412 C0.364768075,142.94734 -0.133735884,144.728571 0.0340414772,145.863391 C1.58427211,145.863391 3.20732697,145.709388 4.74669432,145.83819 C6.88354221,146.017793 9.50722608,147.027411 11.5261872,147.736623 C13.4332968,148.406634 15.3601212,149.067046 17.2652191,149.752658 C19.0021372,150.377868 20.724571,150.619473 22.481204,151.03548 C23.6870284,151.321485 24.9383176,151.825493 26.12322,152.2155 C27.877439,152.79271 29.7813298,152.500305 31.5790019,153.189917 C32.9147833,153.702726 34.4155256,154.295136 35.7943578,154.882346 C36.585768,155.219552 37.3884439,155.625959 38.2514713,155.743961 C39.2689988,155.882763 40.2877333,155.597559 41.3169287,155.797162 C43.8319797,156.28557 46.6174058,157.626394 48.945367,158.702012 C50.857707,159.585627 52.4546095,159.998034 54.5121957,160.452042 C56.2354342,160.832449 57.8717664,161.446459 59.574083,161.944468 C61.9434856,162.63768 64.5941265,163.19849 66.7370095,164.419711 C67.7835057,165.016521 68.8513261,165.626132 69.9497247,166.10534 C70.6357209,166.404145 71.3301662,166.504147 72.0600179,166.656149 C73.2352641,166.900954 74.2761275,167.479364 75.4501667,167.668567 C76.6720848,167.86577 77.8569872,168.190576 79.078503,168.42658 C80.3676125,168.675384 81.6072337,168.826587 82.8758237,169.334596 C85.4113943,170.350213 88.1227891,170.73542 90.8180902,171.393831 C92.2898638,171.753437 93.7672702,171.91424 95.2527235,172.268246 C96.0529853,172.459049 96.5482705,172.435449 97.3449112,172.831456 C97.9765909,173.145461 98.5253879,173.66107 99.1659192,173.873874 C99.2302942,170.418214 101.337771,167.420563 101.801673,164.010104 C101.783568,163.657298 101.76506,163.304892 101.745748,162.952485 C101.784775,162.683281 101.925595,162.489677 102.168209,162.371675 C102.424904,161.410059 102.668322,160.420842 102.832881,159.441225 C103.101646,157.843597 103.878572,156.336371 104.296205,154.642742 C104.536002,153.668325 104.347705,153.008714 104.763728,152.087898 C105.140725,151.253484 105.574451,150.44027 105.960701,149.609855 C106.384369,148.69824 106.186416,148.277432 106.429432,147.419417 C106.668424,146.575803 107.337119,146.114595 107.656983,145.292981 C108.507537,143.105743 108.114045,140.808903 108.648358,138.640066 C108.991959,137.243642 109.796647,135.98082 110.018338,134.531995 C110.115706,133.896784 110.431545,133.259173 110.528108,132.779965 C110.80653,131.399141 110.977928,130.032717 111.268018,128.628293 C111.625299,126.899863 112.693522,125.234235 113.148975,123.548206 C113.544882,122.08178 113.653917,120.396551 113.76094,118.876125 C113.822499,117.99611 114.226452,117.294898 114.323417,116.412082 C114.402679,115.68847 114.213577,114.931657 114.28439,114.206044 C114.420382,112.81002 115.176386,111.501998 115.353819,110.073573 C115.487397,108.997555 115.439921,108.488346 115.861577,107.375127 C116.366116,106.043504 116.242597,105.157888 116.369737,103.824265 C116.558437,101.836631 117.83789,100.150602 117.960605,98.1165668 C118.100218,95.807727 119.126195,93.7080907 119.514054,91.3980509 C120.119984,87.7863886 119.384499,84.0523241 120.006925,80.4930627 C120.441859,78.0050198 122.019851,75.6537792 122.772637,73.2433376 C123.73625,70.1580844 123.75516,66.8196268 124.576344,63.702373 C125.478399,60.2783139 126.850391,56.9382563 126.817399,53.269393 C126.80211,51.5473633 126.644391,49.7421322 126.934481,48.0421028 C127.241067,46.2456718 127.766125,44.4288405 127.873954,42.6268094 C127.953215,41.2979865 127.67077,39.9119626 127.977758,38.60474 C128.15318,37.8595271 128.356766,37.4503201 128.388551,36.6747067 C128.412692,36.0930967 128.258192,35.4278852 128.356766,34.8582754 C128.582079,33.5526528 129.326012,32.0802274 129.805606,30.8506062 C130.09127,30.1193936 130.690762,29.3353801 130.901188,28.6069675 C131.132938,27.8057537 130.975622,26.9321386 131.110407,26.0937241 C131.411762,24.2168918 131.86279,22.5608632 132.414403,20.7644322 C132.88595,19.2296057 133.636724,17.7835808 133.600915,16.1843532 C132.471536,16.1843532 131.338536,16.2111536 130.209559,16.1895533 C128.528165,16.1575527 127.128813,15.1751358 125.537945,14.6727271 C123.706476,14.0935171 121.86334,13.6879101 119.979968,13.2007017 C117.861226,12.6522922 115.872843,11.6626752 113.764561,11.1146657 C112.410675,10.7626596 111.220944,10.5314556 109.841709,10.4978551 C108.011447,10.4534543 106.3896,9.57743918 104.605607,9.45543707 C103.658088,9.39063595 102.820006,8.98142889 101.878521,8.89582742 C101.340185,8.84662657 100.752361,9.04062991 100.221267,8.94942834 C98.286798,8.61702261 96.3531337,8.20301546 94.3828562,7.88300994 C92.5880005,7.59180492 90.7617621,6.87379253 88.9705275,6.84179198 C87.1527382,6.80899141 85.2866677,7.06619585 83.4845699,6.75699051 C81.7359838,6.45738534 80.0207922,5.87177524 78.2669756,5.5449696 C75.7973894,5.08416165 73.4279868,4.26654754 70.950756,3.83854016 C69.9328262,3.66293713 68.896791,3.88494096 67.9013924,3.69173763 C67.1252713,3.54133503 66.5945798,3.23932982 65.7593141,3.20452922 C65.0721109,3.17612873 64.3499038,3.31413111 63.6675287,3.23612977 C63.0249857,3.16212849 62.8572083,2.88692374 62.3558879,2.74212124 C60.3634815,2.16771133 57.4509148,2.68332023 55.355106,2.69692046 C54.6562348,2.70132054 53.9283949,2.80812238 53.2540667,2.5945187 C52.6980275,2.41851566 52.2445861,1.93250727 51.6869376,1.76370436 C51.061293,1.5749011 50.4827226,1.75850427 49.8606991,1.68090293 C49.1936131,1.5977015 48.6894763,1.22969515 48.034863,1.11489317 C46.5043472,0.846888543 45.0080306,1.06369228 43.4549836,0.738486672 C42.7822648,0.597284236 42.1747256,0.728886507 41.5136748,0.64328503 C40.7717528,0.547283373 40.1690418,0.17327692 39.4259129,0.0848753951 C38.1718072,-0.0643271792 36.777686,0.104475733 35.5127171,0.104475733 C34.2417131,0.104475733 32.5860684,-0.189929346 31.390705,0.209677548 C32.2336152,1.83010551 32.8745489,3.75133865 32.2931621,5.72177265 C32.149123,5.75097316 32.0046816,5.78057367 31.8606425,5.81017418" id="Fill-9" fill="#FFFFFF"></path>
                                    <path d="M31.8606425,5.81017418 C31.8606425,7.74900763 31.8755292,9.46623726 31.4027753,11.3002689 C30.9268026,13.1471008 30.5502088,14.7315281 30.0549236,16.4899584 C29.4477868,18.6443956 28.6266031,20.7664322 28.2085679,22.9380697 C28.0902788,23.5504803 27.7985796,23.8868861 27.659771,24.4572959 C27.4155483,25.4597132 27.6666108,26.6549338 27.4453217,27.709752 C27.1318959,29.2037778 26.7134584,30.7522045 26.6309779,32.2710307 C26.5851107,33.1214454 26.7384037,33.9258593 26.5251615,34.7446734 C26.3243919,35.5174867 25.8439934,36.4891035 25.6645481,37.4083194 C25.4505012,38.5059383 25.2935871,39.4975554 25.1048879,40.5695739 C24.9097512,41.677993 24.2969816,42.6852104 24.1384581,43.8488305 C23.9867745,44.9648497 23.9413096,45.7196628 23.6407588,46.7516806 C22.9684424,49.0605204 22.7487626,51.4485616 22.0905282,53.7118007 C21.6234071,55.3186284 21.7384774,56.9134559 21.4391336,58.4986832 C21.2009461,59.759905 20.684739,60.9495255 20.4984538,62.2615482 C20.0683483,65.2880004 19.0991021,68.0820486 18.3994262,71.118501 C17.7488363,73.9405497 17.184348,76.6373962 16.1833166,79.3910437 C15.6663049,80.8130682 15.9338635,81.7342841 15.7117697,83.0887075 C15.4337501,84.7843368 14.5087618,86.4147649 14.2102227,88.1207943 C13.685164,91.1264462 12.1876404,93.8592933 11.5587771,96.8825455 C11.3958278,97.667759 11.182988,98.0861663 10.9906676,98.825379 C10.7947262,99.579792 10.7528825,100.531008 10.5991871,101.321022 C10.479691,101.934633 10.0737261,102.617844 9.99285504,103.098253 C9.82869877,104.06987 10.0745308,105.067487 9.84318314,106.049504 C9.59815577,107.090722 9.08798385,107.989937 8.84577288,109.034355 C8.30220642,111.378796 7.17725317,113.724836 6.35325309,115.988075 C5.76623349,117.600103 5.41458502,119.794541 5.22628812,121.530971 C5.1920889,121.849776 5.31681548,122.216983 5.26531547,122.532988 C5.18806546,123.011396 4.92533497,123.381803 4.84406152,123.78941 C4.4047021,125.992248 3.6301903,128.103484 3.13570978,130.303522 C2.83958474,131.621545 2.92246757,132.865166 2.31774484,134.21159 C1.75124478,135.473211 1.6916979,136.240825 1.48167444,137.526847 C1.25515489,138.910871 0.7196353,140.338895 0.526912623,141.75412 C0.364768075,142.94734 -0.133735884,144.728571 0.0340414772,145.863391 C1.58427211,145.863391 3.20732697,145.709388 4.74669432,145.83819 C6.88354221,146.017793 9.50722608,147.027411 11.5261872,147.736623 C13.4332968,148.406634 15.3601212,149.067046 17.2652191,149.752658 C19.0021372,150.377868 20.724571,150.619473 22.481204,151.03548 C23.6870284,151.321485 24.9383176,151.825493 26.12322,152.2155 C27.877439,152.79271 29.7813298,152.500305 31.5790019,153.189917 C32.9147833,153.702726 34.4155256,154.295136 35.7943578,154.882346 C36.585768,155.219552 37.3884439,155.625959 38.2514713,155.743961 C39.2689988,155.882763 40.2877333,155.597559 41.3169287,155.797162 C43.8319797,156.28557 46.6174058,157.626394 48.945367,158.702012 C50.857707,159.585627 52.4546095,159.998034 54.5121957,160.452042 C56.2354342,160.832449 57.8717664,161.446459 59.574083,161.944468 C61.9434856,162.63768 64.5941265,163.19849 66.7370095,164.419711 C67.7835057,165.016521 68.8513261,165.626132 69.9497247,166.10534 C70.6357209,166.404145 71.3301662,166.504147 72.0600179,166.656149 C73.2352641,166.900954 74.2761275,167.479364 75.4501667,167.668567 C76.6720848,167.86577 77.8569872,168.190576 79.078503,168.42658 C80.3676125,168.675384 81.6072337,168.826587 82.8758237,169.334596 C85.4113943,170.350213 88.1227891,170.73542 90.8180902,171.393831 C92.2898638,171.753437 93.7672702,171.91424 95.2527235,172.268246 C96.0529853,172.459049 96.5482705,172.435449 97.3449112,172.831456 C97.9765909,173.145461 98.5253879,173.66107 99.1659192,173.873874 C99.2302942,170.418214 101.337771,167.420563 101.801673,164.010104 C101.783568,163.657298 101.76506,163.304892 101.745748,162.952485 C101.784775,162.683281 101.925595,162.489677 102.168209,162.371675 C102.424904,161.410059 102.668322,160.420842 102.832881,159.441225 C103.101646,157.843597 103.878572,156.336371 104.296205,154.642742 C104.536002,153.668325 104.347705,153.008714 104.763728,152.087898 C105.140725,151.253484 105.574451,150.44027 105.960701,149.609855 C106.384369,148.69824 106.186416,148.277432 106.429432,147.419417 C106.668424,146.575803 107.337119,146.114595 107.656983,145.292981 C108.507537,143.105743 108.114045,140.808903 108.648358,138.640066 C108.991959,137.243642 109.796647,135.98082 110.018338,134.531995 C110.115706,133.896784 110.431545,133.259173 110.528108,132.779965 C110.80653,131.399141 110.977928,130.032717 111.268018,128.628293 C111.625299,126.899863 112.693522,125.234235 113.148975,123.548206 C113.544882,122.08178 113.653917,120.396551 113.76094,118.876125 C113.822499,117.99611 114.226452,117.294898 114.323417,116.412082 C114.402679,115.68847 114.213577,114.931657 114.28439,114.206044 C114.420382,112.81002 115.176386,111.501998 115.353819,110.073573 C115.487397,108.997555 115.439921,108.488346 115.861577,107.375127 C116.366116,106.043504 116.242597,105.157888 116.369737,103.824265 C116.558437,101.836631 117.83789,100.150602 117.960605,98.1165668 C118.100218,95.807727 119.126195,93.7080907 119.514054,91.3980509 C120.119984,87.7863886 119.384499,84.0523241 120.006925,80.4930627 C120.441859,78.0050198 122.019851,75.6537792 122.772637,73.2433376 C123.73625,70.1580844 123.75516,66.8196268 124.576344,63.702373 C125.478399,60.2783139 126.850391,56.9382563 126.817399,53.269393 C126.80211,51.5473633 126.644391,49.7421322 126.934481,48.0421028 C127.241067,46.2456718 127.766125,44.4288405 127.873954,42.6268094 C127.953215,41.2979865 127.67077,39.9119626 127.977758,38.60474 C128.15318,37.8595271 128.356766,37.4503201 128.388551,36.6747067 C128.412692,36.0930967 128.258192,35.4278852 128.356766,34.8582754 C128.582079,33.5526528 129.326012,32.0802274 129.805606,30.8506062 C130.09127,30.1193936 130.690762,29.3353801 130.901188,28.6069675 C131.132938,27.8057537 130.975622,26.9321386 131.110407,26.0937241 C131.411762,24.2168918 131.86279,22.5608632 132.414403,20.7644322 C132.88595,19.2296057 133.636724,17.7835808 133.600915,16.1843532 C132.471536,16.1843532 131.338536,16.2111536 130.209559,16.1895533 C128.528165,16.1575527 127.128813,15.1751358 125.537945,14.6727271 C123.706476,14.0935171 121.86334,13.6879101 119.979968,13.2007017 C117.861226,12.6522922 115.872843,11.6626752 113.764561,11.1146657 C112.410675,10.7626596 111.220944,10.5314556 109.841709,10.4978551 C108.011447,10.4534543 106.3896,9.57743918 104.605607,9.45543707 C103.658088,9.39063595 102.820006,8.98142889 101.878521,8.89582742 C101.340185,8.84662657 100.752361,9.04062991 100.221267,8.94942834 C98.286798,8.61702261 96.3531337,8.20301546 94.3828562,7.88300994 C92.5880005,7.59180492 90.7617621,6.87379253 88.9705275,6.84179198 C87.1527382,6.80899141 85.2866677,7.06619585 83.4845699,6.75699051 C81.7359838,6.45738534 80.0207922,5.87177524 78.2669756,5.5449696 C75.7973894,5.08416165 73.4279868,4.26654754 70.950756,3.83854016 C69.9328262,3.66293713 68.896791,3.88494096 67.9013924,3.69173763 C67.1252713,3.54133503 66.5945798,3.23932982 65.7593141,3.20452922 C65.0721109,3.17612873 64.3499038,3.31413111 63.6675287,3.23612977 C63.0249857,3.16212849 62.8572083,2.88692374 62.3558879,2.74212124 C60.3634815,2.16771133 57.4509148,2.68332023 55.355106,2.69692046 C54.6562348,2.70132054 53.9283949,2.80812238 53.2540667,2.5945187 C52.6980275,2.41851566 52.2445861,1.93250727 51.6869376,1.76370436 C51.061293,1.5749011 50.4827226,1.75850427 49.8606991,1.68090293 C49.1936131,1.5977015 48.6894763,1.22969515 48.034863,1.11489317 C46.5043472,0.846888543 45.0080306,1.06369228 43.4549836,0.738486672 C42.7822648,0.597284236 42.1747256,0.728886507 41.5136748,0.64328503 C40.7717528,0.547283373 40.1690418,0.17327692 39.4259129,0.0848753951 C38.1718072,-0.0643271792 36.777686,0.104475733 35.5127171,0.104475733 C34.2417131,0.104475733 32.5860684,-0.189929346 31.390705,0.209677548 C32.2336152,1.83010551 32.8745489,3.75133865 32.2931621,5.72177265 C32.149123,5.75097316 32.0046816,5.78057367 31.8606425,5.81017418 Z" id="Stroke-11" stroke="#231F20" stroke-width="4"></path>
                                </g>
                            </g>
                        </g>
                    </g>
                </g>
            </g>
        </g>
    </g>
</svg>