<?xml version="1.0" encoding="UTF-8"?>
<svg width="126px" height="148px" viewBox="0 0 126 148" version="1.1" xmlns="http://www.w3.org/2000/svg" xmlns:xlink="http://www.w3.org/1999/xlink">
    <!-- Generator: Sketch 49 (51002) - http://www.bohemiancoding.com/sketch -->
    <title>Group 13</title>
    <desc>Created with Sketch.</desc>
    <defs>
        <filter x="-0.4%" y="-0.7%" width="100.8%" height="101.5%" filterUnits="objectBoundingBox" id="filter-1">
            <feOffset dx="0" dy="0" in="SourceAlpha" result="shadowOffsetOuter1"></feOffset>
            <feGaussianBlur stdDeviation="2" in="shadowOffsetOuter1" result="shadowBlurOuter1"></feGaussianBlur>
            <feColorMatrix values="0 0 0 0 0   0 0 0 0 0   0 0 0 0 0  0 0 0 0.3 0" type="matrix" in="shadowBlurOuter1" result="shadowMatrixOuter1"></feColorMatrix>
            <feMerge>
                <feMergeNode in="shadowMatrixOuter1"></feMergeNode>
                <feMergeNode in="SourceGraphic"></feMergeNode>
            </feMerge>
        </filter>
    </defs>
    <g id="Page-1" stroke="none" stroke-width="1" fill="none" fill-rule="evenodd">
        <g id="Calc-Presets-Copy" transform="translate(-871.000000, -264.000000)">
            <g id="Group-Copy-2" filter="url(#filter-1)" transform="translate(0.000000, 50.000000)">
                <g id="Group-9" transform="translate(40.000000, 175.000000)">
                    <g id="Group-11">
                        <g id="Group-5">
                            <g id="Group-4" transform="translate(827.000000, 0.000000)">
                                <g id="Group-13" transform="translate(1.000000, 0.000000)">
                                    <rect id="Rectangle-3-Copy-2" x="0" y="0" width="256" height="220"></rect>
                                    <g id="Page-1" transform="translate(65.000000, 115.072072) rotate(-9.000000) translate(-65.000000, -115.072072) translate(16.000000, 49.000000)">
                                        <path d="M0.109841182,18.8921296 L0.109841182,27.2858797 C0.109841182,30.8693177 -0.274556851,34.7693399 0.394846578,38.2762087 C0.784932744,40.3197226 0.300243946,42.4309707 0.658596319,44.4329605 C0.76427584,45.0240157 1.14358449,45.2222121 1.27920155,45.7746883 C1.41900987,46.3439508 1.25255714,47.172665 1.24986276,47.7657817 C1.23429524,50.852109 2.4270069,53.6710331 2.3952731,56.79859 C2.36234181,60.0454181 2.89642755,63.0304384 2.95390763,66.2519398 C2.97037328,67.180194 3.20867611,67.6086869 3.40267138,68.3835082 C3.53289968,68.9035897 3.37722447,69.4398685 3.49817213,69.9425747 C3.60624666,70.3937439 4.00980472,70.5401089 4.12895613,70.9839157 C4.51515042,72.4237109 4.09931797,74.3827042 4.09931797,75.8743309 C4.09931797,77.4325139 4.09812047,78.9909913 4.09931797,80.5491743 C4.10171297,83.2388143 4.6115493,85.8085941 4.69896692,88.4840983 C4.75255512,90.1362257 4.66873001,91.8042561 4.66932876,93.459034 C4.66962813,94.1113446 4.63609809,94.7754351 4.66364063,95.4268622 C4.69507504,96.1654604 4.95163978,96.391045 5.11240437,96.9497056 C6.11231826,100.422413 4.36246896,104.566573 5.21000076,108.063134 C5.33963031,108.59853 5.70935895,108.849441 5.830606,109.41782 C5.96292993,110.038325 5.80875159,110.887654 5.80935034,111.524651 C5.81054784,113.164998 5.80935034,114.80564 5.80935034,116.445988 C5.80935034,118.644113 5.15162255,121.371743 6.95027005,122.892525 C8.55312602,124.247799 10.0814375,125.343917 12.0653984,125.960888 C14.3771754,126.680344 16.736553,127.599763 19.198317,127.664552 C20.760458,127.705487 22.4258834,127.461644 23.9317417,127.783823 C24.4367881,127.891609 24.7286791,128.188462 25.4666395,128.225274 C26.0995191,128.256785 26.7491638,128.224685 27.3838397,128.22174 C31.7181969,128.200831 36.2049363,128.985076 40.3393108,129.853842 C41.6909908,130.137737 43.2866617,129.854725 44.6787574,129.888593 C45.7654902,129.915097 46.641762,130.234626 47.6850853,130.415447 C48.7879844,130.606281 49.8917815,130.371273 51.0039612,130.586845 C54.0393285,131.175838 57.1516353,131.040664 60.2872934,131.023878 C63.9741017,131.004147 67.4151227,132.162697 71.1010328,132.142377 C79.7332235,132.094669 88.3672105,132.144144 97,132.144144 C96.9778462,130.626013 96.405141,129.655057 96.4320848,128.217617 C96.4455567,127.486381 96.5009412,126.795492 96.303054,126.101657 C96.2267133,125.83396 95.9222485,125.84839 95.828544,125.445224 C95.7447189,125.084465 95.9533835,124.658917 95.8914128,124.293152 C95.6351475,122.780027 95.0744173,121.317261 94.7037906,119.822689 C94.1861705,117.735295 93.8948782,115.47032 93.594904,113.346703 C93.2940317,111.216312 92.4060843,109.04587 91.9992331,106.885736 C91.7941609,105.796097 91.9315742,104.785384 91.8836742,103.690445 C91.8333791,102.539256 91.3711434,101.559465 91.2780377,100.423885 C91.1600838,98.9826175 91.2780377,97.708035 91.0211736,96.2614663 C90.7580226,94.7810305 90.5080441,93.2988277 90.2317206,91.8195699 C89.8057094,89.5410476 88.9719489,87.2495673 89.0207471,84.9245145 C89.0659527,82.7623184 88.4231937,80.719688 87.9516774,78.6228702 C87.2670059,75.575711 87.019123,72.4808433 86.1730881,69.4666678 C85.6249317,67.5138589 85.7258212,65.6541112 85.2731656,63.6532994 C84.5262239,60.3534618 83.8538268,56.8895895 82.9095967,53.6507128 C82.1402019,51.0114318 82.065358,48.3709728 81.4845697,45.6807438 C81.2633313,44.6553056 80.6831417,43.6890614 80.5145934,42.6721637 C80.2819787,41.2665301 80.628356,39.805531 80.4990259,38.390179 C80.2604236,35.7806422 79.1497409,33.2500305 78.621942,30.6967425 C78.3965123,29.6065151 78.3237641,28.4656342 78.0669,27.4157528 C77.8827841,26.6621353 77.6100531,26.2454222 77.6286144,25.2582687 C77.6390925,24.6816438 77.7220195,24.0437635 77.6513669,23.4730286 C77.5402986,22.5748131 77.1268612,22.4246197 77.0223792,21.7154712 C76.8855646,20.7860391 77.0448323,20.0901429 76.7727001,19.1668952 C76.5367922,18.3673362 76.1356292,18.0030435 75.7557218,17.3639853 C75.3018686,16.5997659 75.3339018,16.1963052 75.3431824,15.2468472 C75.3761137,11.8783919 75.2060685,8.87746874 73.632252,5.99699476 C69.4442893,5.99699476 65.259021,5.72576313 61.2222429,6.68052201 C60.8540111,6.76769309 60.4672181,7.0312678 59.9669617,7.11843887 C59.2257082,7.24742851 58.6883293,7.34608496 57.9590508,7.61024866 C56.4469056,8.15742387 55.2763477,8.19246899 53.682473,8.22663063 C50.7854171,8.28906397 48.1308553,9.87551866 45.1918869,9.96357323 C43.5668771,10.0121652 41.9194142,9.92175467 40.2917101,9.92175467 C37.3638185,9.92175467 34.1994204,9.61223845 31.4140315,10.4662794 C30.9517959,10.6082269 30.8125863,10.9619177 30.3461594,11.0720595 C29.6929222,11.2260814 28.731029,11.0449658 28.0502493,11.0429043 C26.5401997,11.0387813 24.9472231,10.883876 23.4479511,11.0299464 C21.9337102,11.1777839 20.3922262,11.8392239 18.9198979,12.3018785 C17.4834947,12.7536367 16.1467834,12.9768653 14.6747545,13.4412869 C11.6112459,14.4075311 8.33877323,14.8987519 5.22826266,15.5133669 C4.47802787,15.6614989 4.39629838,15.8305401 3.76581376,16.0888138 C3.22873426,16.308803 2.19229657,16.4101099 1.77706287,16.6206752 C1.33728039,16.8436093 0.109841182,18.3025469 0.109841182,18.8921296" id="Fill-1" fill="#FEFEFE"></path>
                                        <path d="M0.109841182,18.8921296 L0.109841182,27.2858797 C0.109841182,30.8693177 -0.274556851,34.7693399 0.394846578,38.2762087 C0.784932744,40.3197226 0.300243946,42.4309707 0.658596319,44.4329605 C0.76427584,45.0240157 1.14358449,45.2222121 1.27920155,45.7746883 C1.41900987,46.3439508 1.25255714,47.172665 1.24986276,47.7657817 C1.23429524,50.852109 2.4270069,53.6710331 2.3952731,56.79859 C2.36234181,60.0454181 2.89642755,63.0304384 2.95390763,66.2519398 C2.97037328,67.180194 3.20867611,67.6086869 3.40267138,68.3835082 C3.53289968,68.9035897 3.37722447,69.4398685 3.49817213,69.9425747 C3.60624666,70.3937439 4.00980472,70.5401089 4.12895613,70.9839157 C4.51515042,72.4237109 4.09931797,74.3827042 4.09931797,75.8743309 C4.09931797,77.4325139 4.09812047,78.9909913 4.09931797,80.5491743 C4.10171297,83.2388143 4.6115493,85.8085941 4.69896692,88.4840983 C4.75255512,90.1362257 4.66873001,91.8042561 4.66932876,93.459034 C4.66962813,94.1113446 4.63609809,94.7754351 4.66364063,95.4268622 C4.69507504,96.1654604 4.95163978,96.391045 5.11240437,96.9497056 C6.11231826,100.422413 4.36246896,104.566573 5.21000076,108.063134 C5.33963031,108.59853 5.70935895,108.849441 5.830606,109.41782 C5.96292993,110.038325 5.80875159,110.887654 5.80935034,111.524651 C5.81054784,113.164998 5.80935034,114.80564 5.80935034,116.445988 C5.80935034,118.644113 5.15162255,121.371743 6.95027005,122.892525 C8.55312602,124.247799 10.0814375,125.343917 12.0653984,125.960888 C14.3771754,126.680344 16.736553,127.599763 19.198317,127.664552 C20.760458,127.705487 22.4258834,127.461644 23.9317417,127.783823 C24.4367881,127.891609 24.7286791,128.188462 25.4666395,128.225274 C26.0995191,128.256785 26.7491638,128.224685 27.3838397,128.22174 C31.7181969,128.200831 36.2049363,128.985076 40.3393108,129.853842 C41.6909908,130.137737 43.2866617,129.854725 44.6787574,129.888593 C45.7654902,129.915097 46.641762,130.234626 47.6850853,130.415447 C48.7879844,130.606281 49.8917815,130.371273 51.0039612,130.586845 C54.0393285,131.175838 57.1516353,131.040664 60.2872934,131.023878 C63.9741017,131.004147 67.4151227,132.162697 71.1010328,132.142377 C79.7332235,132.094669 88.3672105,132.144144 97,132.144144 C96.9778462,130.626013 96.405141,129.655057 96.4320848,128.217617 C96.4455567,127.486381 96.5009412,126.795492 96.303054,126.101657 C96.2267133,125.83396 95.9222485,125.84839 95.828544,125.445224 C95.7447189,125.084465 95.9533835,124.658917 95.8914128,124.293152 C95.6351475,122.780027 95.0744173,121.317261 94.7037906,119.822689 C94.1861705,117.735295 93.8948782,115.47032 93.594904,113.346703 C93.2940317,111.216312 92.4060843,109.04587 91.9992331,106.885736 C91.7941609,105.796097 91.9315742,104.785384 91.8836742,103.690445 C91.8333791,102.539256 91.3711434,101.559465 91.2780377,100.423885 C91.1600838,98.9826175 91.2780377,97.708035 91.0211736,96.2614663 C90.7580226,94.7810305 90.5080441,93.2988277 90.2317206,91.8195699 C89.8057094,89.5410476 88.9719489,87.2495673 89.0207471,84.9245145 C89.0659527,82.7623184 88.4231937,80.719688 87.9516774,78.6228702 C87.2670059,75.575711 87.019123,72.4808433 86.1730881,69.4666678 C85.6249317,67.5138589 85.7258212,65.6541112 85.2731656,63.6532994 C84.5262239,60.3534618 83.8538268,56.8895895 82.9095967,53.6507128 C82.1402019,51.0114318 82.065358,48.3709728 81.4845697,45.6807438 C81.2633313,44.6553056 80.6831417,43.6890614 80.5145934,42.6721637 C80.2819787,41.2665301 80.628356,39.805531 80.4990259,38.390179 C80.2604236,35.7806422 79.1497409,33.2500305 78.621942,30.6967425 C78.3965123,29.6065151 78.3237641,28.4656342 78.0669,27.4157528 C77.8827841,26.6621353 77.6100531,26.2454222 77.6286144,25.2582687 C77.6390925,24.6816438 77.7220195,24.0437635 77.6513669,23.4730286 C77.5402986,22.5748131 77.1268612,22.4246197 77.0223792,21.7154712 C76.8855646,20.7860391 77.0448323,20.0901429 76.7727001,19.1668952 C76.5367922,18.3673362 76.1356292,18.0030435 75.7557218,17.3639853 C75.3018686,16.5997659 75.3339018,16.1963052 75.3431824,15.2468472 C75.3761137,11.8783919 75.2060685,8.87746874 73.632252,5.99699476 C69.4442893,5.99699476 65.259021,5.72576313 61.2222429,6.68052201 C60.8540111,6.76769309 60.4672181,7.0312678 59.9669617,7.11843887 C59.2257082,7.24742851 58.6883293,7.34608496 57.9590508,7.61024866 C56.4469056,8.15742387 55.2763477,8.19246899 53.682473,8.22663063 C50.7854171,8.28906397 48.1308553,9.87551866 45.1918869,9.96357323 C43.5668771,10.0121652 41.9194142,9.92175467 40.2917101,9.92175467 C37.3638185,9.92175467 34.1994204,9.61223845 31.4140315,10.4662794 C30.9517959,10.6082269 30.8125863,10.9619177 30.3461594,11.0720595 C29.6929222,11.2260814 28.731029,11.0449658 28.0502493,11.0429043 C26.5401997,11.0387813 24.9472231,10.883876 23.4479511,11.0299464 C21.9337102,11.1777839 20.3922262,11.8392239 18.9198979,12.3018785 C17.4834947,12.7536367 16.1467834,12.9768653 14.6747545,13.4412869 C11.6112459,14.4075311 8.33877323,14.8987519 5.22826266,15.5133669 C4.47802787,15.6614989 4.39629838,15.8305401 3.76581376,16.0888138 C3.22873426,16.308803 2.19229657,16.4101099 1.77706287,16.6206752 C1.33728039,16.8436093 0.109841182,18.3025469 0.109841182,18.8921296 Z" id="Stroke-3" stroke="#231F20" stroke-width="4"></path>
                                        <path d="M7.77587658,122.222472 C10.2771079,122.222472 13.2645822,121.776898 15.7169508,122.194373 C16.4361852,122.316805 16.9695031,122.706753 17.7021449,122.788757 C18.333784,122.859579 19.0452718,122.767826 19.687339,122.7684 C21.1055475,122.769546 22.5234582,122.7684 23.9413688,122.7684 C25.1903458,122.7684 26.6934681,122.566544 27.9072878,122.814849 C28.6461864,122.966241 29.1222993,123.282787 29.9243618,123.334685 C31.0598225,123.4078 32.5078254,123.044231 33.6310704,123.293683 C34.1962682,123.419269 34.4081057,123.735816 34.9303997,123.888354 C35.827804,124.150423 37.1789754,123.859395 38.1431189,123.859968 C39.6900388,123.861115 41.4184061,123.667861 42.9563877,123.847352 C44.1636527,123.988422 44.533102,124.758857 45.7376854,124.950964 C47.5175968,125.234537 49.0612394,125.496031 50.8840545,125.497752 C52.1911304,125.498899 53.5062507,125.457037 54.8121348,125.485136 C56.5792346,125.522697 58.1779966,126.057156 59.9614833,126.043393 C61.4041232,126.032497 62.9867963,125.868776 64.3692517,126.164965 C64.8778404,126.273921 65.2478856,126.562368 65.9260038,126.594768 C67.3906915,126.664443 68.94506,126.351624 70.3829328,126.636057 C71.1111054,126.779994 71.6444234,127.083924 72.4089451,127.147864 C73.255997,127.218686 74.1623395,127.134962 75.0120729,127.135248 C76.5247294,127.135822 78.0370879,127.135248 79.5497445,127.135248 L97.9629185,127.135248 C98.1976976,125.587497 97.2576875,123.321496 96.826564,121.7855 C96.6159183,121.034849 96.215483,120.486054 95.9565705,119.766944 C95.703021,119.063603 95.844246,118.557243 95.7253668,117.855623 C95.6237682,117.254644 95.2036686,116.814805 95.0976009,116.218126 C94.9721669,115.512205 95.1926447,114.861909 94.9986838,114.155987 C94.6554535,112.906145 94.0399033,112.006397 93.9925304,110.527747 C93.9567772,109.417541 93.5423385,108.598936 93.2992171,107.495037 C92.7861593,105.166243 91.5407576,103.052493 90.5760182,100.838675 C89.4417493,98.2354829 89.4620094,95.3636274 88.1647657,92.8567752 C87.6698824,91.8999679 86.7423859,90.5993753 86.6187396,89.4708186 C85.0679464,89.469385 83.5186429,89.4280964 81.9684456,89.4212149 C77.4054488,89.4005706 73.0718682,90.2578837 68.6340075,91.1258056 C64.1451986,92.0040497 59.5348289,92.2079125 55.1208037,93.3880799 C52.4408066,94.1046101 49.8853496,95.0086597 47.3263174,96.035715 C44.0554994,97.3486369 40.6109806,98.0832309 37.2790842,99.2378797 C33.7276039,100.468798 30.1984693,101.663588 26.5623732,102.638459 C22.2130016,103.804577 17.5558549,104.809841 13.4615225,106.665537 C12.2923942,107.195408 11.5704784,107.805563 10.6158691,108.588613 C9.95711714,109.129093 8.98224771,109.468291 8.43433057,110.007624 C8.155158,110.282595 7.94004317,110.895617 7.69215461,111.248864 C7.03727594,112.182447 6.03857107,112.798049 5.45907198,113.782096 C4.02507242,116.216693 6.27394603,120.252946 7.77587658,122.222472" id="Fill-5" fill="#FFFFFF"></path>
                                        <path d="M7.77587658,122.222472 C10.2771079,122.222472 13.2645822,121.776898 15.7169508,122.194373 C16.4361852,122.316805 16.9695031,122.706753 17.7021449,122.788757 C18.333784,122.859579 19.0452718,122.767826 19.687339,122.7684 C21.1055475,122.769546 22.5234582,122.7684 23.9413688,122.7684 C25.1903458,122.7684 26.6934681,122.566544 27.9072878,122.814849 C28.6461864,122.966241 29.1222993,123.282787 29.9243618,123.334685 C31.0598225,123.4078 32.5078254,123.044231 33.6310704,123.293683 C34.1962682,123.419269 34.4081057,123.735816 34.9303997,123.888354 C35.827804,124.150423 37.1789754,123.859395 38.1431189,123.859968 C39.6900388,123.861115 41.4184061,123.667861 42.9563877,123.847352 C44.1636527,123.988422 44.533102,124.758857 45.7376854,124.950964 C47.5175968,125.234537 49.0612394,125.496031 50.8840545,125.497752 C52.1911304,125.498899 53.5062507,125.457037 54.8121348,125.485136 C56.5792346,125.522697 58.1779966,126.057156 59.9614833,126.043393 C61.4041232,126.032497 62.9867963,125.868776 64.3692517,126.164965 C64.8778404,126.273921 65.2478856,126.562368 65.9260038,126.594768 C67.3906915,126.664443 68.94506,126.351624 70.3829328,126.636057 C71.1111054,126.779994 71.6444234,127.083924 72.4089451,127.147864 C73.255997,127.218686 74.1623395,127.134962 75.0120729,127.135248 C76.5247294,127.135822 78.0370879,127.135248 79.5497445,127.135248 L97.9629185,127.135248 C98.1976976,125.587497 97.2576875,123.321496 96.826564,121.7855 C96.6159183,121.034849 96.215483,120.486054 95.9565705,119.766944 C95.703021,119.063603 95.844246,118.557243 95.7253668,117.855623 C95.6237682,117.254644 95.2036686,116.814805 95.0976009,116.218126 C94.9721669,115.512205 95.1926447,114.861909 94.9986838,114.155987 C94.6554535,112.906145 94.0399033,112.006397 93.9925304,110.527747 C93.9567772,109.417541 93.5423385,108.598936 93.2992171,107.495037 C92.7861593,105.166243 91.5407576,103.052493 90.5760182,100.838675 C89.4417493,98.2354829 89.4620094,95.3636274 88.1647657,92.8567752 C87.6698824,91.8999679 86.7423859,90.5993753 86.6187396,89.4708186 C85.0679464,89.469385 83.5186429,89.4280964 81.9684456,89.4212149 C77.4054488,89.4005706 73.0718682,90.2578837 68.6340075,91.1258056 C64.1451986,92.0040497 59.5348289,92.2079125 55.1208037,93.3880799 C52.4408066,94.1046101 49.8853496,95.0086597 47.3263174,96.035715 C44.0554994,97.3486369 40.6109806,98.0832309 37.2790842,99.2378797 C33.7276039,100.468798 30.1984693,101.663588 26.5623732,102.638459 C22.2130016,103.804577 17.5558549,104.809841 13.4615225,106.665537 C12.2923942,107.195408 11.5704784,107.805563 10.6158691,108.588613 C9.95711714,109.129093 8.98224771,109.468291 8.43433057,110.007624 C8.155158,110.282595 7.94004317,110.895617 7.69215461,111.248864 C7.03727594,112.182447 6.03857107,112.798049 5.45907198,113.782096 C4.02507242,116.216693 6.27394603,120.252946 7.77587658,122.222472 Z" id="Stroke-7" stroke="#231F20" stroke-width="4"></path>
                                        <path d="M7.03744381,120.157731 C8.26616008,120.157731 9.49487635,120.154215 10.7232947,120.157731 C11.247547,120.159196 11.9386068,120.285205 12.4458805,120.178537 C13.0183878,120.058389 13.2733651,119.699411 13.8131066,119.571058 C16.0322427,119.042994 19.1920541,119.600949 21.4978705,119.599776 C22.7760333,119.59919 23.8864949,119.624685 25.120275,119.320799 C27.0704339,118.840501 29.1275283,119.041822 31.138155,119.041822 L39.0764067,119.041822 L74.519435,119.041822 C75.9370013,119.041822 77.3551632,119.028049 78.7727295,119.040943 C80.3109333,119.055009 81.5068838,118.46687 83.0257261,118.485918 C84.3464844,118.502915 85.6726043,118.503501 86.9933626,118.485918 C88.4460776,118.46687 89.428157,119.020136 90.9648715,119.041822 C91.2022743,118.129284 90.171642,116.526044 89.8144952,115.710504 C89.2107114,114.33232 89.5610073,113.007764 89.2848812,111.489506 C89.0698186,110.306783 88.4192692,108.876144 88.0755265,107.652981 C87.9209317,107.103232 87.678465,106.559343 87.5083809,105.937212 C87.2730631,105.075664 87.0785536,104.293824 86.8691506,103.421141 C86.506642,101.911967 85.7846037,100.445871 85.4182228,98.9598473 C85.0271187,97.37331 84.3849097,96.0739554 84.1740173,94.3866112 C84.0212096,93.164034 83.4406598,92.2623393 83.1368318,91.1385177 C83.0138112,90.6834212 83.0951299,90.2385812 82.9718115,89.8004813 C82.8857269,89.49513 82.5601543,89.4602578 82.5059418,89.1472874 C82.233986,87.5771606 81.9164559,86.0843973 81.8914348,84.4530245 C74.6722426,84.4530245 67.6949215,84.5840149 60.7033025,86.7062355 C56.3800084,88.0187771 52.0793525,88.152698 47.655974,88.874464 C44.3624186,89.4116126 41.5814986,90.8513351 38.417517,91.734275 C35.1579189,92.6438818 31.8855123,92.9023462 28.8701681,94.4938651 C27.4284744,95.254899 26.1038438,96.1639197 24.5748739,96.725391 C21.8862938,97.7132404 18.7440567,98.6931777 16.3941554,100.394002 C14.8505899,101.511084 13.2111101,103.016741 12.0422658,104.484302 C10.520147,106.394946 8.76390187,108.181045 7.30642097,110.101359 C6.42144738,111.267086 6.44617064,112.571715 6.46851094,114.019057 C6.48161725,114.892033 6.35889455,115.133501 6.04255596,115.831531 C5.77477029,116.422892 6.8509768,119.495453 7.03744381,120.157731" id="Fill-9" fill="#FFFFFF"></path>
                                        <path d="M7.03744381,120.157731 C8.26616008,120.157731 9.49487635,120.154215 10.7232947,120.157731 C11.247547,120.159196 11.9386068,120.285205 12.4458805,120.178537 C13.0183878,120.058389 13.2733651,119.699411 13.8131066,119.571058 C16.0322427,119.042994 19.1920541,119.600949 21.4978705,119.599776 C22.7760333,119.59919 23.8864949,119.624685 25.120275,119.320799 C27.0704339,118.840501 29.1275283,119.041822 31.138155,119.041822 L39.0764067,119.041822 L74.519435,119.041822 C75.9370013,119.041822 77.3551632,119.028049 78.7727295,119.040943 C80.3109333,119.055009 81.5068838,118.46687 83.0257261,118.485918 C84.3464844,118.502915 85.6726043,118.503501 86.9933626,118.485918 C88.4460776,118.46687 89.428157,119.020136 90.9648715,119.041822 C91.2022743,118.129284 90.171642,116.526044 89.8144952,115.710504 C89.2107114,114.33232 89.5610073,113.007764 89.2848812,111.489506 C89.0698186,110.306783 88.4192692,108.876144 88.0755265,107.652981 C87.9209317,107.103232 87.678465,106.559343 87.5083809,105.937212 C87.2730631,105.075664 87.0785536,104.293824 86.8691506,103.421141 C86.506642,101.911967 85.7846037,100.445871 85.4182228,98.9598473 C85.0271187,97.37331 84.3849097,96.0739554 84.1740173,94.3866112 C84.0212096,93.164034 83.4406598,92.2623393 83.1368318,91.1385177 C83.0138112,90.6834212 83.0951299,90.2385812 82.9718115,89.8004813 C82.8857269,89.49513 82.5601543,89.4602578 82.5059418,89.1472874 C82.233986,87.5771606 81.9164559,86.0843973 81.8914348,84.4530245 C74.6722426,84.4530245 67.6949215,84.5840149 60.7033025,86.7062355 C56.3800084,88.0187771 52.0793525,88.152698 47.655974,88.874464 C44.3624186,89.4116126 41.5814986,90.8513351 38.417517,91.734275 C35.1579189,92.6438818 31.8855123,92.9023462 28.8701681,94.4938651 C27.4284744,95.254899 26.1038438,96.1639197 24.5748739,96.725391 C21.8862938,97.7132404 18.7440567,98.6931777 16.3941554,100.394002 C14.8505899,101.511084 13.2111101,103.016741 12.0422658,104.484302 C10.520147,106.394946 8.76390187,108.181045 7.30642097,110.101359 C6.42144738,111.267086 6.44617064,112.571715 6.46851094,114.019057 C6.48161725,114.892033 6.35889455,115.133501 6.04255596,115.831531 C5.77477029,116.422892 6.8509768,119.495453 7.03744381,120.157731 Z" id="Stroke-11" stroke="#231F20" stroke-width="4"></path>
                                        <path d="M7.39349001,124.149783 C7.39349001,122.940126 7.34262597,121.718723 7.38783845,120.510241 C7.43632288,119.217767 7.89528906,118.833637 8.85188997,118.020739 C9.7909413,117.222817 10.8022731,116.300084 11.8945115,115.765297 C13.2205459,115.116271 14.7696683,115.063702 16.1706603,114.576492 C21.2841324,112.798863 26.9707917,112.40886 32.6196748,112.40886 C33.8133438,112.40886 35.1060638,112.560104 36.2887271,112.421782 C36.9999313,112.338377 37.3399173,112.063202 38.0207816,111.897568 C38.7548895,111.719012 39.4958387,111.997124 40.2225104,111.878479 C41.9292816,111.600073 43.2249761,111.292005 45.0016481,111.290537 C46.7018753,111.289362 48.4026975,111.279965 50.1032222,111.288775 C52.3106026,111.299935 54.2898384,110.752226 56.4404058,110.726089 C58.6695001,110.699071 60.9015689,110.782182 63.1303657,110.751345 C66.3574065,110.707294 69.2507079,109.120556 72.4004116,109.012482 C74.3023103,108.946992 76.2318719,109.054185 78.1376374,109.054185 C80.2465617,109.054185 82.6356844,109.403954 84.6949344,109.006609 C85.5081642,108.849492 86.0822437,108.519105 86.955261,108.489737 C87.6132216,108.467417 88.2786185,108.495317 88.9374714,108.495023 C91.9574866,108.494142 94.9777993,108.495023 97.9978146,108.495023 C97.9978146,104.94329 98.0700951,101.533697 97.3832818,98.1520038 C97.0682817,96.6013879 96.0777714,95.2205174 95.7336212,93.6989756 C95.5381962,92.8338024 95.2255756,91.9040202 95.1372328,91.0100666 C95.0298532,89.9255165 95.3281961,88.8703341 95.0405614,87.8066351 C93.8587904,83.4402417 93.6541445,78.7140936 92.7754756,74.253136 C92.4369769,72.5357114 91.3712116,71.0781912 91.2025572,69.3854355 C91.0148659,67.5038453 90.5380527,65.7200497 90.0689732,64.0566617 C89.2890579,61.2916903 88.8991003,58.0116091 88.9440153,55.1227059 C88.990715,52.111633 87.7649214,49.4283039 87.8047798,46.4107701 C87.8282783,44.6325543 87.243788,43.6096764 86.6560258,41.9501062 C86.1592834,40.5466226 86.1069321,39.2406399 86.1060398,37.6145489 C86.1051474,35.7303156 85.8538017,34.261342 85.5084616,32.4455355 C85.2163652,30.9093098 85.2877533,29.2406356 84.9305153,27.7061719 C84.6223565,26.3813938 83.7850333,24.9394385 83.3442116,23.7447594 C82.7552595,22.1495046 82.1588712,20.3225384 82.127044,18.6362436 C82.0895652,16.6574462 81.4824687,15.3505824 80.8703155,13.4493159 C80.3417459,11.8073663 80.1195503,10.2012454 79.7510091,8.54167522 C79.7212641,8.40805207 79.3402299,8.13287648 79.2813347,7.88736229 C79.1495642,7.33759847 79.4633745,6.70384295 79.3399325,6.15202338 C79.2150033,5.59315557 78.6682892,5.04897161 78.4556121,4.50919281 C78.1522125,3.73887737 78.3993939,3.04110021 78.2072409,2.23848027 C77.9844504,1.30634865 77.5882463,1.19680704 77.6117449,0.0309083299 C74.6015455,0.0309083299 71.5910487,0.0432427747 68.5805518,0.0309083299 C67.6569679,0.0270905256 66.7107778,-0.0897930224 65.8330013,0.157483227 C65.3243608,0.300504051 64.6298139,0.876405151 64.0191479,1.0229501 C62.6978726,1.33953418 61.1820647,1.15246177 59.818254,1.13630952 C57.578749,1.10958489 55.9082668,2.18326894 53.8674587,2.28018244 C51.6068346,2.38766831 49.325389,2.16006844 47.0641701,2.25433884 C45.3862516,2.3245277 44.109594,3.02788473 42.515854,3.4014422 C40.8138421,3.80054959 39.1046913,3.93975261 37.4353989,4.50390662 C35.8589111,5.03634349 34.389208,5.12209725 32.9183151,5.74645509 C31.4379038,6.37463074 29.8617134,6.81514663 28.3586959,7.17666333 C26.5320522,7.61659186 24.5769098,7.60132064 22.7565126,7.95578909 C20.6996421,8.35636487 18.331341,9.44443911 16.3410995,10.2350183 C13.0286903,11.5503987 9.48932646,11.9072166 6.25901368,13.2939606 C4.92821999,13.8654565 2.90555637,14.2410697 1.82729819,15.2510258 C1.77197239,15.5394169 1.70296387,15.8251649 1.62086752,16.1073887 C1.27998921,16.2739037 0.981051425,16.4965111 0.724054165,16.7749171 C0.297807552,17.3925204 -0.120110446,18.2761952 0.0318867757,19.0400498 C1.16011665,24.7091955 0.0318867757,30.5947814 0.0318867757,36.3720004 C0.0318867757,37.8304017 -0.0433682091,39.1848412 0.315952034,40.5642433 C0.750527263,42.2326237 1.18302034,43.2164426 1.1645784,45.0390036 C1.14613647,46.8468808 1.74758145,48.2362679 1.72884206,49.9971567 C1.70564092,52.1595024 1.72884206,54.3239037 1.73062677,56.4865431 C1.73360127,59.8758723 2.89246855,62.919837 2.86242604,66.2844974 C2.84547136,68.1590393 2.59293586,70.239449 2.98913997,72.0405716 C3.09265276,72.5110426 3.40705797,72.8922356 3.43501832,73.5418497 C3.48736961,74.7485696 3.42966421,75.9790773 3.42966421,77.1857971 L3.42966421,89.4644432 C3.42966421,91.1389909 3.4531628,92.8147134 3.43144891,94.4892611 C3.41895599,95.456634 3.7045085,95.5987737 3.869891,96.3085917 C4.46865892,98.8794424 3.99571257,101.964522 3.99571257,104.632286 C3.99571257,108.876216 3.55637814,113.361549 4.43802152,117.467451 C4.7357695,118.853314 5.19384332,119.923767 5.83574157,121.215066 C6.14895698,121.845004 7.33637951,123.949789 7.81854682,124.098096 C7.86584145,123.928938 7.39349001,124.325108 7.39349001,124.149783" id="Fill-13" fill="#FFFFFF"></path>
                                        <path d="M7.39349001,124.149783 C7.39349001,122.940126 7.34262597,121.718723 7.38783845,120.510241 C7.43632288,119.217767 7.89528906,118.833637 8.85188997,118.020739 C9.7909413,117.222817 10.8022731,116.300084 11.8945115,115.765297 C13.2205459,115.116271 14.7696683,115.063702 16.1706603,114.576492 C21.2841324,112.798863 26.9707917,112.40886 32.6196748,112.40886 C33.8133438,112.40886 35.1060638,112.560104 36.2887271,112.421782 C36.9999313,112.338377 37.3399173,112.063202 38.0207816,111.897568 C38.7548895,111.719012 39.4958387,111.997124 40.2225104,111.878479 C41.9292816,111.600073 43.2249761,111.292005 45.0016481,111.290537 C46.7018753,111.289362 48.4026975,111.279965 50.1032222,111.288775 C52.3106026,111.299935 54.2898384,110.752226 56.4404058,110.726089 C58.6695001,110.699071 60.9015689,110.782182 63.1303657,110.751345 C66.3574065,110.707294 69.2507079,109.120556 72.4004116,109.012482 C74.3023103,108.946992 76.2318719,109.054185 78.1376374,109.054185 C80.2465617,109.054185 82.6356844,109.403954 84.6949344,109.006609 C85.5081642,108.849492 86.0822437,108.519105 86.955261,108.489737 C87.6132216,108.467417 88.2786185,108.495317 88.9374714,108.495023 C91.9574866,108.494142 94.9777993,108.495023 97.9978146,108.495023 C97.9978146,104.94329 98.0700951,101.533697 97.3832818,98.1520038 C97.0682817,96.6013879 96.0777714,95.2205174 95.7336212,93.6989756 C95.5381962,92.8338024 95.2255756,91.9040202 95.1372328,91.0100666 C95.0298532,89.9255165 95.3281961,88.8703341 95.0405614,87.8066351 C93.8587904,83.4402417 93.6541445,78.7140936 92.7754756,74.253136 C92.4369769,72.5357114 91.3712116,71.0781912 91.2025572,69.3854355 C91.0148659,67.5038453 90.5380527,65.7200497 90.0689732,64.0566617 C89.2890579,61.2916903 88.8991003,58.0116091 88.9440153,55.1227059 C88.990715,52.111633 87.7649214,49.4283039 87.8047798,46.4107701 C87.8282783,44.6325543 87.243788,43.6096764 86.6560258,41.9501062 C86.1592834,40.5466226 86.1069321,39.2406399 86.1060398,37.6145489 C86.1051474,35.7303156 85.8538017,34.261342 85.5084616,32.4455355 C85.2163652,30.9093098 85.2877533,29.2406356 84.9305153,27.7061719 C84.6223565,26.3813938 83.7850333,24.9394385 83.3442116,23.7447594 C82.7552595,22.1495046 82.1588712,20.3225384 82.127044,18.6362436 C82.0895652,16.6574462 81.4824687,15.3505824 80.8703155,13.4493159 C80.3417459,11.8073663 80.1195503,10.2012454 79.7510091,8.54167522 C79.7212641,8.40805207 79.3402299,8.13287648 79.2813347,7.88736229 C79.1495642,7.33759847 79.4633745,6.70384295 79.3399325,6.15202338 C79.2150033,5.59315557 78.6682892,5.04897161 78.4556121,4.50919281 C78.1522125,3.73887737 78.3993939,3.04110021 78.2072409,2.23848027 C77.9844504,1.30634865 77.5882463,1.19680704 77.6117449,0.0309083299 C74.6015455,0.0309083299 71.5910487,0.0432427747 68.5805518,0.0309083299 C67.6569679,0.0270905256 66.7107778,-0.0897930224 65.8330013,0.157483227 C65.3243608,0.300504051 64.6298139,0.876405151 64.0191479,1.0229501 C62.6978726,1.33953418 61.1820647,1.15246177 59.818254,1.13630952 C57.578749,1.10958489 55.9082668,2.18326894 53.8674587,2.28018244 C51.6068346,2.38766831 49.325389,2.16006844 47.0641701,2.25433884 C45.3862516,2.3245277 44.109594,3.02788473 42.515854,3.4014422 C40.8138421,3.80054959 39.1046913,3.93975261 37.4353989,4.50390662 C35.8589111,5.03634349 34.389208,5.12209725 32.9183151,5.74645509 C31.4379038,6.37463074 29.8617134,6.81514663 28.3586959,7.17666333 C26.5320522,7.61659186 24.5769098,7.60132064 22.7565126,7.95578909 C20.6996421,8.35636487 18.331341,9.44443911 16.3410995,10.2350183 C13.0286903,11.5503987 9.48932646,11.9072166 6.25901368,13.2939606 C4.92821999,13.8654565 2.90555637,14.2410697 1.82729819,15.2510258 C1.77197239,15.5394169 1.70296387,15.8251649 1.62086752,16.1073887 C1.27998921,16.2739037 0.981051425,16.4965111 0.724054165,16.7749171 C0.297807552,17.3925204 -0.120110446,18.2761952 0.0318867757,19.0400498 C1.16011665,24.7091955 0.0318867757,30.5947814 0.0318867757,36.3720004 C0.0318867757,37.8304017 -0.0433682091,39.1848412 0.315952034,40.5642433 C0.750527263,42.2326237 1.18302034,43.2164426 1.1645784,45.0390036 C1.14613647,46.8468808 1.74758145,48.2362679 1.72884206,49.9971567 C1.70564092,52.1595024 1.72884206,54.3239037 1.73062677,56.4865431 C1.73360127,59.8758723 2.89246855,62.919837 2.86242604,66.2844974 C2.84547136,68.1590393 2.59293586,70.239449 2.98913997,72.0405716 C3.09265276,72.5110426 3.40705797,72.8922356 3.43501832,73.5418497 C3.48736961,74.7485696 3.42966421,75.9790773 3.42966421,77.1857971 L3.42966421,89.4644432 C3.42966421,91.1389909 3.4531628,92.8147134 3.43144891,94.4892611 C3.41895599,95.456634 3.7045085,95.5987737 3.869891,96.3085917 C4.46865892,98.8794424 3.99571257,101.964522 3.99571257,104.632286 C3.99571257,108.876216 3.55637814,113.361549 4.43802152,117.467451 C4.7357695,118.853314 5.19384332,119.923767 5.83574157,121.215066 C6.14895698,121.845004 7.33637951,123.949789 7.81854682,124.098096 C7.86584145,123.928938 7.39349001,124.325108 7.39349001,124.149783 Z" id="Stroke-15" stroke="#231F20" stroke-width="4"></path>
                                    </g>
                                </g>
                            </g>
                        </g>
                    </g>
                </g>
            </g>
        </g>
    </g>
</svg>