<?xml version="1.0" encoding="UTF-8"?>
<svg width="118px" height="29px" viewBox="0 0 118 29" version="1.1" xmlns="http://www.w3.org/2000/svg" xmlns:xlink="http://www.w3.org/1999/xlink">
    <!-- Generator: Sketch 49.3 (51167) - http://www.bohemiancoding.com/sketch -->
    <title>logo russian</title>
    <desc>Created with Sketch.</desc>
    <defs></defs>
    <g id="⛳️-Stage-3" stroke="none" stroke-width="1" fill="none" fill-rule="evenodd">
        <g id="Main-//-Case-[1440px]" transform="translate(-96.000000, -43.000000)" fill="#FFFFFF" fill-rule="nonzero">
            <g id="logo-russian" transform="translate(96.000000, 43.000000)">
                <path d="M22.8064506,28.4235738 C22.8880649,28.7175512 22.5091415,29 22.1768548,29 L17.3907607,29 C17.0486566,28.96397 16.7558847,28.7412847 16.6329139,28.4235738 L15.6243947,25.0630093 L7.18897669,25.0630093 L6.18045747,28.4235738 C6.06068463,28.7412287 5.7694106,28.9644922 5.42844025,29 L0.642346163,29 C0.304229894,29 -0.0746935117,28.7117869 0.0127503511,28.4235738 L8.31991732,0.616775989 L8.31991732,0.576426158 C8.48897545,0.201749155 8.61722645,0 8.9028764,0 L13.8988358,0 C14.1961449,0 14.3593734,0.207513417 14.4817948,0.576426158 L14.4817948,0.616775989 C17.2625097,9.87418008 20.0315653,19.171934 22.8064506,28.4235738 Z M13.9454725,19.4601471 L11.4270892,10.952097 L8.86789886,19.4601471 L13.9454725,19.4601471 Z" id="_Compound_Path_"></path>
                <path d="M46.2727128,0.585448731 C46.2222111,0.719443181 46.1500944,0.844684297 46.0590955,0.956426144 L38.3451352,15.610034 L38.3451352,28.4203478 C38.3451352,28.7404809 38.0794692,29 37.7517536,29 L32.6249369,29 C32.2972213,29 32.0315554,28.7404809 32.0315554,28.4203478 L32.0315554,15.610034 L24.3175951,0.950629622 C24.2469632,0.83326466 24.18928,0.708909273 24.1455144,0.579652209 C24.0209043,0.284029582 24.4066023,1.35144078e-15 24.738896,1.35144078e-15 L30.2514107,1.35144078e-15 C30.5996311,0.0362316723 30.8976373,0.260163273 31.0228067,0.579652209 L35.1764776,8.69478313 L39.3301486,0.579652209 C39.4825421,0.263926059 39.7888063,0.0455479206 40.1430813,0 L45.6081255,0 C45.9819559,1.67321239e-15 46.3676539,0.289826104 46.2727128,0.585448731 Z" id="_Compound_Path_2"></path>
                <path d="M69.1049693,0.62402808 L69.1049693,5.53536019 C69.1054979,5.69695892 69.0369471,5.85139002 68.9159501,5.96118206 C68.7949531,6.0709741 68.6325683,6.12609276 68.4681971,6.11316397 L63.0792172,6.11316397 L63.0792172,28.5030603 C63.0377978,28.7902382 62.7855544,29.002826 62.4896133,28.9999716 L57.4779799,28.9999716 C57.1820388,29.002826 56.9297954,28.7902382 56.888376,28.5030603 L56.888376,6.118942 L51.487604,6.118942 C51.3232328,6.1318708 51.160848,6.07675214 51.039851,5.96696009 C50.918854,5.85716805 50.8503032,5.70273696 50.8508318,5.54113823 L50.8508318,0.62402808 C50.8601104,0.283224339 51.1398402,0.00909290844 51.487604,0 L68.4681971,0 C68.8159609,0.00909290844 69.0956907,0.283224339 69.1049693,0.62402808 Z" id="_Compound_Path_3"></path>
                <path d="M71.7321137,28.2794673 L79.0910799,0.628304512 C79.2159323,0.277985456 79.5408785,0.0318588824 79.920593,0 L85.6086827,3.12941219e-16 C85.9700034,0.0396696771 86.2726265,0.284255316 86.3789449,0.62254025 L93.8327125,28.2448817 C94.0045402,28.5330948 93.6608848,28.9884715 93.3231545,28.9884715 L87.9905703,28.9884715 C87.65284,28.9884715 87.4810123,28.7809581 87.3506602,28.4120453 L83.4874993,12.3989267 L83.1438438,9.94911548 L82.7172371,12.3989267 L78.2200911,28.4235738 C78.1371398,28.7982508 77.9238364,29 77.5861061,29 L72.2535219,29 C72.0795928,28.9851796 71.9212364,28.8964848 71.8207298,28.7575951 C71.7202233,28.6187053 71.6877991,28.4437608 71.7321137,28.2794673 Z" id="_Compound_Path_4"></path>
                <path d="M117.996805,25.1582572 C118.024553,25.5614189 117.868673,25.9560221 117.570691,26.2369448 L115.138291,28.5442978 C114.862344,28.8321672 114.477195,28.9969244 114.073007,29 L103.035475,29 C102.618595,28.9998835 102.219462,28.8355356 101.928763,28.5442978 L99.5614643,26.2369448 C99.26266,25.9536075 99.0940423,25.5645815 99.0939227,25.1582572 L99.0939227,3.8498521 C99.0937915,3.44179112 99.2623234,3.0508837 99.5614643,2.76539618 L101.928763,0.45804316 C102.205212,0.147097328 102.614031,-0.0212387912 103.035475,0.00234093848 L114.031579,0.00234093848 C114.453182,-0.0221336165 114.86239,0.146362976 115.138291,0.45804316 L117.570691,2.76539618 C117.86893,3.04854182 118.024697,3.44496759 117.996805,3.8498521 L117.996805,25.1582572 Z M106.444386,6.08798453 C106.342573,6.08376679 106.245961,6.13194474 106.189901,6.21488894 L105.467875,6.86671617 C105.390895,6.96291252 105.345514,7.07952468 105.337674,7.20128236 L105.337674,22.0433306 C105.350825,22.149913 105.396139,22.250292 105.467875,22.3317498 L106.0597,22.908588 L111.001436,22.908588 L111.593261,22.3317498 C111.678668,22.2598316 111.724651,22.1531204 111.717544,22.0433306 L111.717544,7.21281912 C111.738796,7.08780465 111.691702,6.96102777 111.593261,6.87825293 L110.912663,6.21488894 C110.834734,6.13324397 110.725239,6.08720698 110.610832,6.08798453 L106.444386,6.08798453 Z" id="_Compound_Path_5"></path>
            </g>
        </g>
    </g>
</svg>